<svg width="128" height="128" viewBox="0 0 128 128" fill="none" xmlns="http://www.w3.org/2000/svg">
<path d="M80.6687 57.0956C106.979 57.9335 126.293 60.7073 126.293 63.9999C126.293 67.2925 106.979 70.0662 80.6687 70.9042C98.68 90.1008 110.376 105.72 108.048 108.048C105.72 110.376 90.101 98.6798 70.9044 80.6685C70.0665 106.978 67.2927 126.293 64.0001 126.293C60.7075 126.293 57.9338 106.978 57.0958 80.6685C37.8992 98.6798 22.2802 110.376 19.9519 108.048C17.624 105.72 29.3202 90.1008 47.3315 70.9042C21.0216 70.0662 1.70679 67.2925 1.70679 63.9999C1.70679 60.7073 21.0216 57.9335 47.3315 57.0956C29.3202 37.899 17.624 22.28 19.9523 19.9517C22.2802 17.6238 37.8992 29.32 57.0958 47.3313C57.9338 21.0213 60.7075 1.70654 64.0001 1.70654C67.2927 1.70654 70.0665 21.0213 70.9044 47.3313C90.101 29.32 105.72 17.6238 108.048 19.9521C110.376 22.28 98.68 37.899 80.6687 57.0956Z" fill="#D57456"/>
</svg>
