<svg width="870" height="135" viewBox="0 0 870 135" fill="none" xmlns="http://www.w3.org/2000/svg">
<path d="M80.6686 57.0955C106.979 57.9335 126.293 60.7073 126.293 63.9999C126.293 67.2925 106.979 70.0662 80.6686 70.9042C98.6799 90.1008 110.376 105.72 108.048 108.048C105.72 110.376 90.1009 98.6798 70.9043 80.6685C70.0664 106.978 67.2926 126.293 64 126.293C60.7074 126.293 57.9337 106.978 57.0957 80.6685C37.8991 98.6798 22.2801 110.376 19.9518 108.048C17.6239 105.72 29.3201 90.1008 47.3314 70.9042C21.0214 70.0662 1.70667 67.2925 1.70667 63.9999C1.70667 60.7073 21.0214 57.9335 47.3314 57.0955C29.3201 37.899 17.6239 22.28 19.9522 19.9516C22.2801 17.6238 37.8991 29.32 57.0957 47.3313C57.9337 21.0213 60.7074 1.70653 64 1.70653C67.2926 1.70653 70.0664 21.0213 70.9043 47.3313C90.1009 29.32 105.72 17.6238 108.048 19.9521C110.376 22.28 98.6799 37.899 80.6686 57.0955Z" fill="#D57456"/>
<path d="M248.104 12.552L244.008 16.008V96.392L248.104 99.848V101H230.44V99.848L234.536 96.392V15.752L202.152 101H198.824L165.16 20.36V94.856L173.224 99.848V101H155.56V99.848L163.624 94.856V17.544L157.096 12.552V11.4H171.688L204.712 90.12L234.536 11.4H248.104V12.552ZM298.233 34.824H316.025V35.976L307.193 41.224L284.153 101C277.113 116.488 268.665 134.152 244.345 131.208L246.521 121.864C268.025 127.496 277.753 110.984 281.337 103.432L256.889 40.328L250.233 35.976V34.824H272.377V35.976L266.873 39.688L286.585 90.504L305.529 40.968L298.233 35.976V34.824ZM346.238 11.4C363.902 11.4 382.206 18.824 382.206 38.664C382.206 58.504 363.902 65.928 346.238 65.928H332.158V96.392L336.254 99.848V101H318.59V99.848L322.686 96.392V16.008L318.59 12.552V11.4H346.238ZM346.238 64.392C362.238 64.392 371.966 54.664 371.966 38.664C371.966 22.664 362.238 12.936 346.238 12.936H332.158V64.392H346.238ZM437.225 96.392L441.321 99.848V101H427.753V76.936C424.553 88.2 417.001 102.792 400.745 102.792C392.041 102.792 381.289 96.904 382.313 85.384C384.105 64.136 423.785 53.768 427.753 51.08C427.753 51.08 429.033 36.36 415.849 36.36C408.297 36.36 399.337 41.224 389.865 50.696L386.665 42.248C394.985 36.744 408.041 34.824 414.697 34.824C420.841 34.824 437.225 35.848 437.225 58.376V96.392ZM427.753 67.72V53C415.977 58.632 392.041 67.464 392.041 84.872C392.041 92.04 396.905 98.824 405.225 98.824C418.537 98.824 426.345 79.496 427.753 67.72ZM508.771 96.392L512.867 99.848V101H495.075V99.848L499.171 96.392V57.352C499.171 45.704 492.003 37.128 481.635 37.128C470.883 37.128 463.203 44.68 461.283 55.048V96.392L465.379 99.848V101H447.715V99.848L451.811 96.392V43.912L447.715 41.224V40.072L460.131 34.824H461.283V44.552C468.195 38.408 476.259 34.824 485.091 34.824C497.251 34.824 508.771 41.48 508.771 58.12V96.392ZM579.854 90.504L581.134 91.528C574.478 98.44 566.926 102.792 554.894 102.792C532.238 102.792 519.31 85.896 519.31 69.256C519.31 52.616 532.238 34.824 554.894 34.824C561.934 34.824 566.798 35.976 573.326 37.128L576.782 48.648H575.758C569.998 40.968 560.014 34.568 548.238 37.128C533.134 40.2 526.35 57.352 529.422 72.968C532.11 86.792 542.478 102.28 560.526 99.976C568.846 98.952 574.478 96.008 579.854 90.504ZM646.021 96.392L650.117 99.848V101H632.453V99.848L636.549 96.392V57.352C636.549 45.704 629.381 37.128 619.013 37.128C608.261 37.128 600.581 44.68 598.661 55.048V96.392L602.757 99.848V101H584.965V99.848L589.061 96.392V15.24L584.965 12.552V11.4L597.509 6.15199H598.661V44.552C605.573 38.408 613.509 34.824 622.341 34.824C634.501 34.824 646.021 41.48 646.021 58.12V96.392ZM711.6 96.392L715.696 99.848V101H702.128V76.936C698.928 88.2 691.376 102.792 675.12 102.792C666.416 102.792 655.664 96.904 656.688 85.384C658.48 64.136 698.16 53.768 702.128 51.08C702.128 51.08 703.408 36.36 690.224 36.36C682.672 36.36 673.712 41.224 664.24 50.696L661.04 42.248C669.36 36.744 682.416 34.824 689.072 34.824C695.216 34.824 711.6 35.848 711.6 58.376V96.392ZM702.128 67.72V53C690.352 58.632 666.416 67.464 666.416 84.872C666.416 92.04 671.28 98.824 679.6 98.824C692.912 98.824 700.72 79.496 702.128 67.72ZM763.108 34.824H780.9V35.976L772.068 41.224L749.028 101C741.988 116.488 733.54 134.152 709.22 131.208L711.396 121.864C732.9 127.496 742.628 110.984 746.212 103.432L721.764 40.328L715.108 35.976V34.824H737.252V35.976L731.748 39.688L751.46 90.504L770.404 40.968L763.108 35.976V34.824ZM832.1 96.392L836.196 99.848V101H822.628V76.936C819.428 88.2 811.876 102.792 795.62 102.792C786.916 102.792 776.164 96.904 777.188 85.384C778.98 64.136 818.66 53.768 822.628 51.08C822.628 51.08 823.908 36.36 810.724 36.36C803.172 36.36 794.212 41.224 784.74 50.696L781.54 42.248C789.86 36.744 802.916 34.824 809.572 34.824C815.716 34.824 832.1 35.848 832.1 58.376V96.392ZM822.628 67.72V53C810.852 58.632 786.916 67.464 786.916 84.872C786.916 92.04 791.78 98.824 800.1 98.824C813.412 98.824 821.22 79.496 822.628 67.72ZM856.798 85.512C856.798 92.936 858.974 100.36 868.446 100.36V101.896C859.358 102.28 847.198 100.104 847.198 83.976V36.36H840.03V34.824L855.646 24.072H856.798V34.824H867.422V36.36H856.798V85.512Z" fill="#020617"/>
</svg>
