<svg width="538" height="161" viewBox="0 0 538 161" fill="none" xmlns="http://www.w3.org/2000/svg">
<path d="M71.328 69.664L68.256 72.256V132.544L71.328 135.136V136H58.08V135.136L61.152 132.544V72.064L36.864 136H34.368L9.12 75.52V131.392L15.168 135.136V136H1.92V135.136L7.968 131.392V73.408L3.072 69.664V68.8H14.016L38.784 127.84L61.152 68.8H71.328V69.664ZM108.925 86.368H122.269V87.232L115.645 91.168L98.3648 136C93.0848 147.616 86.7488 160.864 68.5087 158.656L70.1408 151.648C86.2688 155.872 93.5648 143.488 96.2528 137.824L77.9168 90.496L72.9248 87.232V86.368H89.5328V87.232L85.4048 90.016L100.189 128.128L114.397 90.976L108.925 87.232V86.368ZM144.929 68.8C158.177 68.8 171.905 74.368 171.905 89.248C171.905 104.128 158.177 109.696 144.929 109.696H134.369V132.544L137.441 135.136V136H124.193V135.136L127.265 132.544V72.256L124.193 69.664V68.8H144.929ZM144.929 108.544C156.929 108.544 164.225 101.248 164.225 89.248C164.225 77.248 156.929 69.952 144.929 69.952H134.369V108.544H144.929ZM213.169 132.544L216.241 135.136V136H206.065V117.952C203.665 126.4 198.001 137.344 185.809 137.344C179.281 137.344 171.217 132.928 171.985 124.288C173.329 108.352 203.089 100.576 206.065 98.56C206.065 98.56 207.025 87.52 197.137 87.52C191.473 87.52 184.753 91.168 177.649 98.272L175.249 91.936C181.489 87.808 191.281 86.368 196.273 86.368C200.881 86.368 213.169 87.136 213.169 104.032V132.544ZM206.065 111.04V100C197.233 104.224 179.281 110.848 179.281 123.904C179.281 129.28 182.929 134.368 189.169 134.368C199.153 134.368 205.009 119.872 206.065 111.04ZM266.828 132.544L269.9 135.136V136H256.556V135.136L259.628 132.544V103.264C259.628 94.528 254.252 88.096 246.476 88.096C238.412 88.096 232.652 93.76 231.212 101.536V132.544L234.284 135.136V136H221.036V135.136L224.108 132.544V93.184L221.036 91.168V90.304L230.348 86.368H231.212V93.664C236.396 89.056 242.444 86.368 249.068 86.368C258.188 86.368 266.828 91.36 266.828 103.84V132.544ZM320.141 128.128L321.101 128.896C316.109 134.08 310.445 137.344 301.421 137.344C284.429 137.344 274.733 124.672 274.733 112.192C274.733 99.712 284.429 86.368 301.421 86.368C306.701 86.368 310.349 87.232 315.245 88.096L317.837 96.736H317.069C312.749 90.976 305.261 86.176 296.429 88.096C285.101 90.4 280.013 103.264 282.317 114.976C284.333 125.344 292.109 136.96 305.645 135.232C311.885 134.464 316.109 132.256 320.141 128.128ZM369.766 132.544L372.838 135.136V136H359.59V135.136L362.662 132.544V103.264C362.662 94.528 357.286 88.096 349.51 88.096C341.446 88.096 335.686 93.76 334.246 101.536V132.544L337.318 135.136V136H323.974V135.136L327.046 132.544V71.68L323.974 69.664V68.8L333.382 64.864H334.246V93.664C339.43 89.056 345.382 86.368 352.006 86.368C361.126 86.368 369.766 91.36 369.766 103.84V132.544ZM418.95 132.544L422.022 135.136V136H411.846V117.952C409.446 126.4 403.782 137.344 391.59 137.344C385.062 137.344 376.998 132.928 377.766 124.288C379.11 108.352 408.87 100.576 411.846 98.56C411.846 98.56 412.806 87.52 402.918 87.52C397.254 87.52 390.534 91.168 383.43 98.272L381.03 91.936C387.27 87.808 397.062 86.368 402.054 86.368C406.662 86.368 418.95 87.136 418.95 104.032V132.544ZM411.846 111.04V100C403.014 104.224 385.062 110.848 385.062 123.904C385.062 129.28 388.71 134.368 394.95 134.368C404.934 134.368 410.79 119.872 411.846 111.04ZM457.581 86.368H470.925V87.232L464.301 91.168L447.021 136C441.741 147.616 435.405 160.864 417.165 158.656L418.797 151.648C434.925 155.872 442.221 143.488 444.909 137.824L426.573 90.496L421.581 87.232V86.368H438.189V87.232L434.061 90.016L448.845 128.128L463.053 90.976L457.581 87.232V86.368ZM509.325 132.544L512.397 135.136V136H502.221V117.952C499.821 126.4 494.157 137.344 481.965 137.344C475.437 137.344 467.373 132.928 468.141 124.288C469.485 108.352 499.245 100.576 502.221 98.56C502.221 98.56 503.181 87.52 493.293 87.52C487.629 87.52 480.909 91.168 473.805 98.272L471.405 91.936C477.645 87.808 487.437 86.368 492.429 86.368C497.037 86.368 509.325 87.136 509.325 104.032V132.544ZM502.221 111.04V100C493.389 104.224 475.437 110.848 475.437 123.904C475.437 129.28 479.085 134.368 485.325 134.368C495.309 134.368 501.165 119.872 502.221 111.04ZM527.849 124.384C527.849 129.952 529.481 135.52 536.585 135.52V136.672C529.769 136.96 520.648 135.328 520.648 123.232V87.52H515.273V86.368L526.984 78.304H527.849V86.368H535.817V87.52H527.849V124.384Z" fill="black"/>
<path d="M277.563 28.4533C291.078 28.8837 301 30.3086 301 32C301 33.6914 291.078 35.1163 277.563 35.5467C286.815 45.408 292.823 53.4315 291.628 54.6275C290.431 55.8233 282.408 49.815 272.547 40.5626C272.116 54.078 270.691 64 269 64C267.309 64 265.884 54.078 265.453 40.5626C255.592 49.815 247.569 55.8233 246.372 54.6275C245.177 53.4315 251.185 45.408 260.437 35.5467C246.922 35.1163 237 33.6914 237 32C237 30.3086 246.922 28.8837 260.437 28.4533C251.185 18.592 245.177 10.5685 246.373 9.37249C247.569 8.17666 255.592 14.185 265.453 23.4374C265.884 9.92197 267.309 0 269 0C270.691 0 272.116 9.92197 272.547 23.4374C282.408 14.185 290.431 8.17666 291.628 9.37271C292.823 10.5685 286.815 18.592 277.563 28.4533Z" fill="black"/>
</svg>
