<svg width="291" height="47" viewBox="0 0 291 47" fill="none" xmlns="http://www.w3.org/2000/svg">
<path d="M9.94531 14.0781C9.61979 14.0781 9.1901 14.0716 8.65625 14.0586C8.13542 14.0586 7.51693 14.0521 6.80078 14.0391C6.08464 14.026 5.43359 14.013 4.84766 14C4.26172 14 3.74089 14 3.28516 14L0.921875 14.0586C0.882812 14.0195 0.863281 13.9154 0.863281 13.7461C0.863281 13.5768 0.882812 13.4922 0.921875 13.4922C1.03906 13.4922 1.19531 13.4727 1.39062 13.4336C1.58594 13.3815 1.76823 13.3229 1.9375 13.2578C2.11979 13.1927 2.23047 13.1211 2.26953 13.043C2.36068 12.8997 2.40625 12.2878 2.40625 11.207V3.82422C2.40625 3.44661 2.39323 3.11458 2.36719 2.82812C2.35417 2.54167 2.32161 2.3138 2.26953 2.14453C2.24349 2.06641 2.13932 1.99479 1.95703 1.92969C1.78776 1.86458 1.59896 1.8125 1.39062 1.77344C1.19531 1.73438 1.03906 1.71484 0.921875 1.71484C0.869792 1.71484 0.84375 1.63672 0.84375 1.48047C0.84375 1.3112 0.869792 1.20052 0.921875 1.14844C1.26042 1.16146 1.61849 1.17448 1.99609 1.1875C2.38672 1.1875 2.80339 1.1875 3.24609 1.1875C3.54557 1.1875 3.94922 1.18099 4.45703 1.16797C4.96484 1.15495 5.57682 1.13542 6.29297 1.10938C7.02214 1.08333 7.65365 1.0638 8.1875 1.05078C8.73438 1.03776 9.1901 1.03125 9.55469 1.03125C9.58073 1.21354 9.61979 1.4349 9.67188 1.69531C9.72396 1.94271 9.78906 2.21615 9.86719 2.51562C9.93229 2.82812 9.98438 3.08203 10.0234 3.27734C10.0755 3.47266 10.1081 3.60938 10.1211 3.6875C10.056 3.7526 9.9388 3.78516 9.76953 3.78516C9.60026 3.78516 9.50911 3.73958 9.49609 3.64844C9.30078 2.93229 9.02734 2.47656 8.67578 2.28125C8.32422 2.07292 7.84245 1.96875 7.23047 1.96875H5.92188C4.78906 1.96875 4.21615 2.05339 4.20312 2.22266C4.17708 2.37891 4.15104 2.59375 4.125 2.86719C4.11198 3.14062 4.10547 3.47266 4.10547 3.86328V6.98828C4.10547 7.06641 4.38542 7.10547 4.94531 7.10547H5.98047C6.42318 7.10547 6.72266 7.10547 6.87891 7.10547C7.03516 7.09245 7.14583 7.07292 7.21094 7.04688C7.28906 7.02083 7.43229 6.98177 7.64062 6.92969C7.77083 6.90365 7.86849 6.75391 7.93359 6.48047C8.01172 6.19401 8.07682 5.95964 8.12891 5.77734C8.14193 5.6862 8.23958 5.64062 8.42188 5.64062C8.57812 5.64062 8.6888 5.67318 8.75391 5.73828V9.42969C8.70182 9.48177 8.59766 9.50781 8.44141 9.50781C8.27214 9.50781 8.16797 9.45573 8.12891 9.35156C8.07682 9.16927 8.03125 9.01302 7.99219 8.88281C7.95312 8.7526 7.92057 8.64193 7.89453 8.55078C7.82943 8.36849 7.77734 8.26432 7.73828 8.23828C7.71224 8.21224 7.66016 8.17318 7.58203 8.12109C7.39974 8.01693 6.70964 7.96484 5.51172 7.96484C4.57422 7.96484 4.10547 8.02344 4.10547 8.14062V11.168C4.10547 12.0143 4.16406 12.6068 4.28125 12.9453C4.32031 13.0755 4.76302 13.1406 5.60938 13.1406H6.54688C7.74479 13.1406 8.5651 13.0299 9.00781 12.8086C9.20312 12.7044 9.41797 12.4766 9.65234 12.125C9.89974 11.7604 10.0951 11.3307 10.2383 10.8359C10.2643 10.7578 10.3555 10.7188 10.5117 10.7188C10.7591 10.7188 10.9219 10.7578 11 10.8359C10.9609 10.9401 10.8958 11.1029 10.8047 11.3242C10.7266 11.5326 10.6484 11.7474 10.5703 11.9688C10.4922 12.1901 10.4271 12.3789 10.375 12.5352C10.2969 12.7695 10.2122 13.0365 10.1211 13.3359C10.0299 13.6354 9.97135 13.8828 9.94531 14.0781ZM12.0352 14.0586C11.9831 14.0065 11.957 13.8958 11.957 13.7266C11.957 13.5703 11.9831 13.4922 12.0352 13.4922C12.1393 13.4922 12.2826 13.4727 12.4648 13.4336C12.6471 13.3945 12.8164 13.3424 12.9727 13.2773C13.1289 13.2122 13.2135 13.1536 13.2266 13.1016C13.2786 12.9193 13.3112 12.7109 13.3242 12.4766C13.3503 12.2422 13.3633 11.9948 13.3633 11.7344V8.04297C13.3633 7.54818 13.2721 7.19661 13.0898 6.98828C12.9596 6.83203 12.8034 6.72786 12.6211 6.67578C12.4518 6.6237 12.2956 6.59766 12.1523 6.59766C12.0221 6.58464 11.957 6.5651 11.957 6.53906C11.957 6.22656 11.9961 6.0638 12.0742 6.05078C12.7643 5.94661 13.3047 5.85547 13.6953 5.77734C14.099 5.69922 14.4049 5.63411 14.6133 5.58203L14.8672 5.52344C14.9193 5.51042 14.9518 5.5625 14.9648 5.67969C14.9779 5.78385 14.9779 5.86849 14.9648 5.93359C14.9388 6.11589 14.9193 6.27214 14.9062 6.40234C14.8932 6.53255 14.8867 6.63672 14.8867 6.71484C14.8867 6.76693 14.8997 6.79297 14.9258 6.79297C14.9388 6.79297 14.9583 6.77995 14.9844 6.75391C15.2839 6.44141 15.6875 6.14844 16.1953 5.875C16.7161 5.58854 17.2109 5.44531 17.6797 5.44531C18.2005 5.44531 18.6302 5.58854 18.9688 5.875C19.3203 6.14844 19.5612 6.46745 19.6914 6.83203C20.681 5.90755 21.6901 5.44531 22.7188 5.44531C24.3594 5.44531 25.1797 6.69531 25.1797 9.19531V11.3633C25.1797 11.7409 25.1927 12.0729 25.2188 12.3594C25.2448 12.6458 25.2839 12.8932 25.3359 13.1016C25.362 13.1536 25.4531 13.2122 25.6094 13.2773C25.7656 13.3424 25.9349 13.3945 26.1172 13.4336C26.2995 13.4727 26.4297 13.4922 26.5078 13.4922C26.5469 13.4922 26.5729 13.5703 26.5859 13.7266C26.599 13.8828 26.5924 13.9935 26.5664 14.0586L24.4766 13.9609L22.3477 14.0586C22.2956 14.0065 22.2695 13.8958 22.2695 13.7266C22.2695 13.5703 22.2956 13.4922 22.3477 13.4922C22.4518 13.4922 22.5951 13.4727 22.7773 13.4336C22.9596 13.3945 23.1289 13.3424 23.2852 13.2773C23.4414 13.2122 23.526 13.1536 23.5391 13.1016C23.5911 12.9193 23.6237 12.724 23.6367 12.5156C23.6628 12.2943 23.6758 12.0729 23.6758 11.8516V9.64453C23.6758 7.63932 23.0182 6.63672 21.7031 6.63672C21.3906 6.63672 21.0977 6.70833 20.8242 6.85156C20.5508 6.98177 20.3294 7.13151 20.1602 7.30078C20.0039 7.47005 19.9258 7.61979 19.9258 7.75C19.9648 7.9974 19.9909 8.2513 20.0039 8.51172C20.0169 8.75911 20.0234 9.03255 20.0234 9.33203V11.5391C20.0234 11.8646 20.0365 12.1576 20.0625 12.418C20.0885 12.6654 20.1276 12.8932 20.1797 13.1016C20.2057 13.1536 20.2969 13.2122 20.4531 13.2773C20.6094 13.3424 20.7786 13.3945 20.9609 13.4336C21.1432 13.4727 21.2734 13.4922 21.3516 13.4922C21.3906 13.4922 21.4167 13.5703 21.4297 13.7266C21.4427 13.8828 21.4362 13.9935 21.4102 14.0586L19.3203 13.9609L17.1914 14.0586C17.1393 14.0065 17.1133 13.8958 17.1133 13.7266C17.1133 13.5703 17.1393 13.4922 17.1914 13.4922C17.2956 13.4922 17.4388 13.4727 17.6211 13.4336C17.8034 13.3945 17.9727 13.3424 18.1289 13.2773C18.2852 13.2122 18.3698 13.1536 18.3828 13.1016C18.4349 12.9193 18.4674 12.7109 18.4805 12.4766C18.5065 12.2422 18.5195 11.9948 18.5195 11.7344V9.74219C18.5195 7.67188 17.8945 6.63672 16.6445 6.63672C16.3841 6.63672 16.1172 6.70833 15.8438 6.85156C15.5703 6.98177 15.3359 7.15104 15.1406 7.35938C14.9583 7.55469 14.8672 7.74349 14.8672 7.92578V11.3633C14.8672 11.7409 14.8802 12.0729 14.9062 12.3594C14.9323 12.6458 14.9714 12.8932 15.0234 13.1016C15.0495 13.1536 15.1406 13.2122 15.2969 13.2773C15.4531 13.3424 15.6224 13.3945 15.8047 13.4336C15.987 13.4727 16.1172 13.4922 16.1953 13.4922C16.2344 13.4922 16.2604 13.5703 16.2734 13.7266C16.2865 13.8828 16.2799 13.9935 16.2539 14.0586L14.1641 13.9609L12.0352 14.0586ZM27.4648 18.4141C27.4128 18.362 27.3867 18.2578 27.3867 18.1016C27.3867 17.9323 27.4128 17.8477 27.4648 17.8477C27.569 17.8477 27.7122 17.8281 27.8945 17.7891C28.0768 17.75 28.2461 17.6979 28.4023 17.6328C28.5586 17.5677 28.6432 17.5091 28.6562 17.457C28.7083 17.2747 28.7409 17.0664 28.7539 16.832C28.7799 16.5977 28.793 16.3503 28.793 16.0898V8.02344C28.793 7.52865 28.7018 7.17708 28.5195 6.96875C28.3893 6.8125 28.2331 6.70833 28.0508 6.65625C27.8815 6.60417 27.7253 6.57812 27.582 6.57812C27.4518 6.5651 27.3867 6.54557 27.3867 6.51953C27.3867 6.20703 27.4258 6.04427 27.5039 6.03125C28.8841 5.82292 29.7695 5.66016 30.1602 5.54297L30.2969 5.50391C30.362 5.50391 30.388 5.57552 30.375 5.71875C30.362 5.84896 30.349 5.95964 30.3359 6.05078L30.3164 6.16797C30.4466 6.07682 30.6289 5.97917 30.8633 5.875C31.0977 5.77083 31.3451 5.67969 31.6055 5.60156C31.8789 5.52344 32.1133 5.48438 32.3086 5.48438C33.194 5.48438 33.9297 5.6862 34.5156 6.08984C35.1146 6.48047 35.5573 6.98177 35.8438 7.59375C36.1432 8.19271 36.293 8.80469 36.293 9.42969C36.293 10.0547 36.1758 10.6536 35.9414 11.2266C35.707 11.7865 35.388 12.2878 34.9844 12.7305C34.5807 13.1732 34.1185 13.5247 33.5977 13.7852C33.0898 14.0326 32.5625 14.1562 32.0156 14.1562C31.612 14.1562 31.306 14.1237 31.0977 14.0586C30.8893 14.0065 30.6484 13.9154 30.375 13.7852C30.3229 13.8372 30.2969 13.9219 30.2969 14.0391V15.7188C30.2969 16.0964 30.3099 16.4284 30.3359 16.7148C30.362 17.0013 30.401 17.2487 30.4531 17.457C30.4792 17.5091 30.5703 17.5677 30.7266 17.6328C30.8828 17.6979 31.0521 17.75 31.2344 17.7891C31.4167 17.8281 31.5469 17.8477 31.625 17.8477C31.6641 17.8477 31.6901 17.9258 31.7031 18.082C31.7161 18.2513 31.7096 18.362 31.6836 18.4141L29.5938 18.3164L27.4648 18.4141ZM32.0938 13.3359C32.6146 13.3359 33.0573 13.1797 33.4219 12.8672C33.7995 12.5417 34.0924 12.125 34.3008 11.6172C34.5091 11.0964 34.6133 10.5495 34.6133 9.97656C34.6133 9.2474 34.4766 8.6224 34.2031 8.10156C33.9427 7.56771 33.5911 7.15755 33.1484 6.87109C32.7057 6.58464 32.2174 6.44141 31.6836 6.44141C31.2799 6.44141 30.9479 6.55208 30.6875 6.77344C30.4271 6.98177 30.2969 7.28776 30.2969 7.69141V12.0859C30.2969 12.4375 30.4857 12.737 30.8633 12.9844C31.2409 13.2188 31.651 13.3359 32.0938 13.3359ZM42.0352 14.1367C41.2539 14.1367 40.5378 13.9414 39.8867 13.5508C39.2357 13.1602 38.7148 12.6328 38.3242 11.9688C37.9466 11.3047 37.7578 10.5755 37.7578 9.78125C37.7578 8.97396 37.9401 8.24479 38.3047 7.59375C38.6823 6.94271 39.1901 6.42839 39.8281 6.05078C40.4661 5.66016 41.1888 5.46484 41.9961 5.46484C42.7773 5.46484 43.487 5.66016 44.125 6.05078C44.776 6.44141 45.2904 6.96224 45.668 7.61328C46.0586 8.26432 46.2539 8.98698 46.2539 9.78125C46.2539 10.5755 46.0651 11.3047 45.6875 11.9688C45.3099 12.6328 44.8021 13.1602 44.1641 13.5508C43.5391 13.9414 42.8294 14.1367 42.0352 14.1367ZM42.2109 13.375C42.6797 13.375 43.0898 13.2253 43.4414 12.9258C43.793 12.6263 44.0664 12.2227 44.2617 11.7148C44.4701 11.207 44.5742 10.6536 44.5742 10.0547C44.5742 9.35156 44.444 8.71354 44.1836 8.14062C43.9232 7.55469 43.5781 7.09245 43.1484 6.75391C42.7318 6.40234 42.276 6.22656 41.7812 6.22656C41.3255 6.22656 40.9154 6.3763 40.5508 6.67578C40.1992 6.96224 39.9258 7.35286 39.7305 7.84766C39.5352 8.32943 39.4375 8.8763 39.4375 9.48828C39.4375 10.1914 39.5612 10.8424 39.8086 11.4414C40.069 12.0273 40.4076 12.4961 40.8242 12.8477C41.2539 13.1992 41.7161 13.375 42.2109 13.375ZM51.957 14.2148C51.8138 14.2148 51.7357 14.1888 51.7227 14.1367C51.5664 13.7852 51.3971 13.401 51.2148 12.9844C51.0456 12.5547 50.8633 12.0924 50.668 11.5977C50.2643 10.6211 49.8867 9.74219 49.5352 8.96094C49.1836 8.16667 48.7734 7.35286 48.3047 6.51953C48.1354 6.23307 47.7839 6.08984 47.25 6.08984C47.1979 6.08984 47.1719 6.00521 47.1719 5.83594C47.1719 5.67969 47.1979 5.57552 47.25 5.52344C47.5234 5.53646 47.8294 5.5625 48.168 5.60156C48.5065 5.6276 48.8451 5.63411 49.1836 5.62109L51.1367 5.52344C51.1628 5.57552 51.1693 5.6862 51.1562 5.85547C51.1562 6.01172 51.1367 6.08984 51.0977 6.08984C50.4466 6.08984 50.1211 6.23958 50.1211 6.53906C50.1211 6.63021 50.3359 7.11849 50.7656 8.00391C51.1953 8.8763 51.7552 10.0938 52.4453 11.6562C52.901 10.3672 53.2591 9.35156 53.5195 8.60938C53.793 7.86719 53.9297 7.44401 53.9297 7.33984C53.9297 7.27474 53.8906 7.16406 53.8125 7.00781C53.7474 6.85156 53.6628 6.67578 53.5586 6.48047C53.4544 6.32422 53.3112 6.22005 53.1289 6.16797C52.9466 6.11589 52.7578 6.08984 52.5625 6.08984C52.5104 6.08984 52.4844 6.00521 52.4844 5.83594C52.4844 5.67969 52.5104 5.57552 52.5625 5.52344C52.8359 5.53646 53.1354 5.55599 53.4609 5.58203C53.7995 5.60807 54.1315 5.62109 54.457 5.62109C54.8737 5.62109 55.2383 5.60807 55.5508 5.58203C55.8763 5.55599 56.1497 5.53646 56.3711 5.52344C56.3971 5.6276 56.4102 5.73828 56.4102 5.85547C56.4102 5.98568 56.3906 6.0638 56.3516 6.08984C55.7266 6.08984 55.4141 6.34375 55.4141 6.85156C55.4141 7.11198 56.1302 8.71354 57.5625 11.6562C57.8229 10.849 58.0768 10.1068 58.3242 9.42969C58.5716 8.73958 58.7734 8.16667 58.9297 7.71094C59.0859 7.24219 59.1641 6.92969 59.1641 6.77344C59.1641 6.31771 58.7344 6.08984 57.875 6.08984H57.7969C57.7448 6.08984 57.7188 6.00521 57.7188 5.83594C57.7188 5.67969 57.7448 5.57552 57.7969 5.52344C58.0833 5.53646 58.3958 5.55599 58.7344 5.58203C59.0729 5.60807 59.418 5.62109 59.7695 5.62109C60.082 5.62109 60.3815 5.60807 60.668 5.58203C60.9674 5.55599 61.2474 5.53646 61.5078 5.52344C61.5339 5.6276 61.5469 5.72526 61.5469 5.81641C61.5469 5.9987 61.5143 6.08984 61.4492 6.08984C61.2799 6.08984 61.0521 6.14844 60.7656 6.26562C60.4792 6.36979 60.2904 6.54557 60.1992 6.79297L57.6406 13.7852C57.5495 14.0716 57.3672 14.2148 57.0938 14.2148C56.9505 14.2148 56.8724 14.1888 56.8594 14.1367L54.457 8.39453L52.4844 13.7852C52.4453 13.8763 52.3737 13.9674 52.2695 14.0586C52.1784 14.1628 52.0742 14.2148 51.957 14.2148ZM66 14.1172C65.2839 14.1172 64.6263 13.9284 64.0273 13.5508C63.4284 13.1732 62.9466 12.6719 62.582 12.0469C62.2305 11.4089 62.0547 10.6992 62.0547 9.91797C62.0547 9.00651 62.224 8.21875 62.5625 7.55469C62.901 6.89062 63.3633 6.38281 63.9492 6.03125C64.5352 5.66667 65.1927 5.48438 65.9219 5.48438C66.5208 5.48438 67.0482 5.60156 67.5039 5.83594C67.9596 6.05729 68.3112 6.34375 68.5586 6.69531C68.793 7.0599 68.9622 7.43099 69.0664 7.80859C69.1836 8.17318 69.2422 8.53776 69.2422 8.90234C69.2422 9.16276 69.2031 9.32552 69.125 9.39062C69.0469 9.44271 68.8971 9.46875 68.6758 9.46875H63.7539C63.6497 9.46875 63.5977 9.5013 63.5977 9.56641C63.5977 10.1133 63.7083 10.6406 63.9297 11.1484C64.151 11.6432 64.4766 12.0534 64.9062 12.3789C65.3359 12.7044 65.8633 12.8672 66.4883 12.8672C67.0352 12.8672 67.4909 12.7891 67.8555 12.6328C68.2331 12.4635 68.5065 12.3138 68.6758 12.1836L68.8125 12.0859C68.8906 12.0859 68.9297 12.1706 68.9297 12.3398C68.9297 12.431 68.8906 12.5482 68.8125 12.6914C68.5521 13.056 68.168 13.388 67.6602 13.6875C67.1523 13.974 66.599 14.1172 66 14.1172ZM63.7539 8.64844H67.5625C67.6276 8.64844 67.6602 8.58333 67.6602 8.45312C67.6602 8.16667 67.582 7.85417 67.4258 7.51562C67.2826 7.16406 67.0612 6.85807 66.7617 6.59766C66.4622 6.33724 66.0846 6.20703 65.6289 6.20703C65.2122 6.20703 64.8542 6.35026 64.5547 6.63672C64.2552 6.91016 64.0273 7.22917 63.8711 7.59375C63.7148 7.94531 63.6367 8.2513 63.6367 8.51172C63.6367 8.60286 63.6758 8.64844 63.7539 8.64844ZM70.4531 14.0586C70.401 14.0065 70.375 13.8958 70.375 13.7266C70.375 13.5703 70.401 13.4922 70.4531 13.4922C70.5573 13.4922 70.7005 13.4727 70.8828 13.4336C71.0651 13.3945 71.2344 13.3424 71.3906 13.2773C71.5469 13.2122 71.6315 13.1536 71.6445 13.1016C71.6966 12.9193 71.7292 12.7109 71.7422 12.4766C71.7682 12.2422 71.7812 11.9948 71.7812 11.7344V8.04297C71.7812 7.54818 71.6901 7.19661 71.5078 6.98828C71.3776 6.83203 71.2214 6.72786 71.0391 6.67578C70.8698 6.6237 70.7135 6.59766 70.5703 6.59766C70.4401 6.58464 70.375 6.5651 70.375 6.53906C70.375 6.22656 70.4141 6.0638 70.4922 6.05078C71.9115 5.82943 72.7318 5.6862 72.9531 5.62109L73.2852 5.52344C73.3372 5.51042 73.3698 5.5625 73.3828 5.67969C73.3958 5.79688 73.3958 5.88151 73.3828 5.93359L73.2656 6.91016C73.5 6.55859 73.819 6.23307 74.2227 5.93359C74.6393 5.62109 75.0495 5.46484 75.4531 5.46484C76.2083 5.46484 76.7161 5.65365 76.9766 6.03125C76.9766 6.48698 76.9049 6.81901 76.7617 7.02734C76.6185 7.23568 76.4427 7.33984 76.2344 7.33984C76 7.33984 75.7852 7.22917 75.5898 7.00781C75.3945 6.78646 75.1276 6.67578 74.7891 6.67578C74.5286 6.67578 74.2812 6.76693 74.0469 6.94922C73.8125 7.11849 73.6237 7.33984 73.4805 7.61328C73.3503 7.8737 73.2852 8.14714 73.2852 8.43359V11.3633C73.2852 11.7409 73.2982 12.0729 73.3242 12.3594C73.3503 12.6458 73.3893 12.8932 73.4414 13.1016C73.4674 13.1536 73.5586 13.2122 73.7148 13.2773C73.8711 13.3424 74.0404 13.3945 74.2227 13.4336C74.418 13.4727 74.5547 13.4922 74.6328 13.4922C74.6719 13.4922 74.6979 13.5703 74.7109 13.7266C74.724 13.8828 74.7174 13.9935 74.6914 14.0586L72.582 13.9609L70.4531 14.0586ZM77.8555 14.0586C77.8034 14.0065 77.7773 13.8958 77.7773 13.7266C77.7773 13.5703 77.8034 13.4922 77.8555 13.4922C77.9596 13.4922 78.1029 13.4727 78.2852 13.4336C78.4674 13.3945 78.6367 13.3424 78.793 13.2773C78.9492 13.2122 79.0339 13.1536 79.0469 13.1016C79.099 12.9193 79.1315 12.7109 79.1445 12.4766C79.1706 12.2422 79.1836 11.9948 79.1836 11.7344V8.04297C79.1836 7.54818 79.0924 7.19661 78.9102 6.98828C78.7799 6.81901 78.6237 6.71484 78.4414 6.67578C78.2591 6.6237 78.1029 6.59766 77.9727 6.59766C77.8424 6.58464 77.7773 6.5651 77.7773 6.53906C77.7773 6.22656 77.8164 6.0638 77.8945 6.05078C78.5846 5.94661 79.112 5.86198 79.4766 5.79688C79.8411 5.71875 80.1667 5.64714 80.4531 5.58203L80.6875 5.52344C80.7396 5.51042 80.7721 5.5625 80.7852 5.67969C80.7982 5.79688 80.7982 5.88151 80.7852 5.93359C80.7591 6.19401 80.7331 6.44141 80.707 6.67578C80.694 6.91016 80.6875 7.13151 80.6875 7.33984V11.3633C80.6875 11.7409 80.7005 12.0729 80.7266 12.3594C80.7526 12.6458 80.7917 12.8932 80.8438 13.1016C80.8698 13.1536 80.9609 13.2122 81.1172 13.2773C81.2734 13.3424 81.4427 13.3945 81.625 13.4336C81.8073 13.4727 81.9375 13.4922 82.0156 13.4922C82.0547 13.4922 82.0807 13.5703 82.0938 13.7266C82.1068 13.8828 82.1003 13.9935 82.0742 14.0586L79.9844 13.9609L77.8555 14.0586ZM79.7891 3.39453C79.5286 3.39453 79.3008 3.29688 79.1055 3.10156C78.9102 2.90625 78.8125 2.67839 78.8125 2.41797C78.8125 2.14453 78.9102 1.91667 79.1055 1.73438C79.3008 1.53906 79.5286 1.44141 79.7891 1.44141C80.0625 1.44141 80.2904 1.53906 80.4727 1.73438C80.668 1.91667 80.7656 2.14453 80.7656 2.41797C80.7656 2.67839 80.668 2.90625 80.4727 3.10156C80.2904 3.29688 80.0625 3.39453 79.7891 3.39453ZM83.3047 14.0586C83.2526 14.0065 83.2266 13.8958 83.2266 13.7266C83.2266 13.5703 83.2526 13.4922 83.3047 13.4922C83.4089 13.4922 83.5521 13.4727 83.7344 13.4336C83.9167 13.3945 84.0859 13.3424 84.2422 13.2773C84.3984 13.2122 84.4831 13.1536 84.4961 13.1016C84.5482 12.9193 84.5807 12.7109 84.5938 12.4766C84.6198 12.2422 84.6328 11.9948 84.6328 11.7344V8.04297C84.6328 7.54818 84.5417 7.19661 84.3594 6.98828C84.2292 6.83203 84.0729 6.72786 83.8906 6.67578C83.7214 6.6237 83.5651 6.59766 83.4219 6.59766C83.2917 6.58464 83.2266 6.5651 83.2266 6.53906C83.2266 6.22656 83.2656 6.0638 83.3438 6.05078C84.0339 5.94661 84.5938 5.85547 85.0234 5.77734C85.4531 5.6862 85.7201 5.6276 85.8242 5.60156L86.1367 5.52344C86.1888 5.51042 86.2214 5.5625 86.2344 5.67969C86.2474 5.79688 86.2474 5.88151 86.2344 5.93359C86.2083 6.11589 86.1888 6.27214 86.1758 6.40234C86.1628 6.53255 86.1562 6.63672 86.1562 6.71484C86.1562 6.76693 86.1693 6.79297 86.1953 6.79297C86.2083 6.79297 86.2279 6.77995 86.2539 6.75391C86.5534 6.44141 86.957 6.14844 87.4648 5.875C87.9857 5.58854 88.4805 5.44531 88.9492 5.44531C89.8607 5.44531 90.4987 5.77083 90.8633 6.42188C91.2279 7.07292 91.4102 8.1276 91.4102 9.58594V11.3633C91.4102 11.7409 91.4232 12.0729 91.4492 12.3594C91.4753 12.6458 91.5143 12.8932 91.5664 13.1016C91.5924 13.1536 91.6836 13.2122 91.8398 13.2773C91.9961 13.3424 92.1654 13.3945 92.3477 13.4336C92.5299 13.4727 92.6602 13.4922 92.7383 13.4922C92.7773 13.4922 92.8034 13.5703 92.8164 13.7266C92.8294 13.8828 92.8229 13.9935 92.7969 14.0586L90.707 13.9609L88.6562 14.0586C88.6042 14.0065 88.5781 13.8958 88.5781 13.7266C88.5781 13.5703 88.6042 13.4922 88.6562 13.4922C88.7604 13.4922 88.8971 13.4727 89.0664 13.4336C89.2357 13.3945 89.3919 13.3424 89.5352 13.2773C89.6784 13.2122 89.7565 13.1536 89.7695 13.1016C89.8216 12.9193 89.8542 12.7109 89.8672 12.4766C89.8932 12.2422 89.9062 11.9948 89.9062 11.7344V9.78125C89.9062 8.57031 89.75 7.74349 89.4375 7.30078C89.125 6.85807 88.6172 6.63672 87.9141 6.63672C87.6406 6.63672 87.3672 6.71484 87.0938 6.87109C86.8203 7.01432 86.5924 7.18359 86.4102 7.37891C86.2279 7.57422 86.1367 7.75651 86.1367 7.92578V11.3633C86.1367 11.7409 86.1497 12.0729 86.1758 12.3594C86.2018 12.6458 86.2409 12.8932 86.293 13.1016C86.319 13.1536 86.4102 13.2122 86.5664 13.2773C86.7227 13.3424 86.8919 13.3945 87.0742 13.4336C87.2565 13.4727 87.3867 13.4922 87.4648 13.4922C87.5039 13.4922 87.5299 13.5703 87.543 13.7266C87.556 13.8828 87.5495 13.9935 87.5234 14.0586L85.4336 13.9609L83.3047 14.0586ZM97.4258 18.4336C96.8138 18.4336 96.2279 18.3555 95.668 18.1992C95.1211 18.043 94.6784 17.8021 94.3398 17.4766C94.0013 17.151 93.832 16.7474 93.832 16.2656C93.832 15.4583 94.4701 14.7682 95.7461 14.1953C95.3945 14.1432 95.069 13.9805 94.7695 13.707C94.4701 13.4336 94.3203 13.1016 94.3203 12.7109C94.3203 12.3724 94.4635 12.0208 94.75 11.6562C95.0495 11.2917 95.3815 10.9922 95.7461 10.7578C95.4857 10.6536 95.2318 10.4779 94.9844 10.2305C94.75 9.98307 94.5547 9.6901 94.3984 9.35156C94.2422 9.01302 94.1641 8.66146 94.1641 8.29688C94.1641 7.77604 94.3138 7.3138 94.6133 6.91016C94.9128 6.49349 95.3099 6.16797 95.8047 5.93359C96.3125 5.6862 96.8789 5.5625 97.5039 5.5625C98.0117 5.5625 98.5651 5.64714 99.1641 5.81641C99.763 5.98568 100.277 6.07031 100.707 6.07031H101.84C101.918 6.08333 101.957 6.24609 101.957 6.55859C101.957 6.74089 101.918 6.83203 101.84 6.83203H100.453C100.401 6.83203 100.375 6.85156 100.375 6.89062L100.57 7.35938C100.714 7.6849 100.785 7.9974 100.785 8.29688C100.785 8.76562 100.642 9.20833 100.355 9.625C100.069 10.0417 99.6784 10.3802 99.1836 10.6406C98.7018 10.901 98.1549 11.0312 97.543 11.0312C97.3346 11.0312 97.1393 11.0247 96.957 11.0117C96.7747 10.9987 96.6055 10.9792 96.4492 10.9531C96.2018 11.1354 96 11.3242 95.8438 11.5195C95.7005 11.7148 95.6289 11.9102 95.6289 12.1055C95.6289 12.431 95.8112 12.6393 96.1758 12.7305C96.5404 12.8216 97.0091 12.8672 97.582 12.8672C98.3893 12.8802 99.0729 12.9323 99.6328 13.0234C100.206 13.1016 100.655 13.2122 100.98 13.3555C101.632 13.668 101.957 14.1302 101.957 14.7422C101.957 15.4062 101.762 16.0182 101.371 16.5781C100.993 17.138 100.46 17.5807 99.7695 17.9062C99.0924 18.2448 98.3112 18.4206 97.4258 18.4336ZM97.5234 10.3672C98.0312 10.3672 98.4479 10.1719 98.7734 9.78125C99.112 9.39062 99.2812 8.92188 99.2812 8.375C99.2812 7.77604 99.0924 7.26823 98.7148 6.85156C98.3503 6.4349 97.9206 6.22656 97.4258 6.22656C96.918 6.22656 96.4948 6.42188 96.1562 6.8125C95.8307 7.20312 95.668 7.67188 95.668 8.21875C95.668 8.81771 95.8503 9.32552 96.2148 9.74219C96.5924 10.1589 97.0286 10.3672 97.5234 10.3672ZM97.9922 17.7109C98.513 17.7109 98.9753 17.6133 99.3789 17.418C99.7826 17.2227 100.095 16.9688 100.316 16.6562C100.551 16.3438 100.668 16.0117 100.668 15.6602C100.668 15.1133 100.401 14.7487 99.8672 14.5664C99.3464 14.3711 98.3112 14.2734 96.7617 14.2734C96.6576 14.2734 96.4753 14.332 96.2148 14.4492C95.9674 14.5664 95.7331 14.7357 95.5117 14.957C95.3034 15.1914 95.1992 15.4844 95.1992 15.8359C95.1992 16.2005 95.3359 16.526 95.6094 16.8125C95.8828 17.099 96.2279 17.3203 96.6445 17.4766C97.0742 17.6328 97.5234 17.7109 97.9922 17.7109ZM119.496 14.0977C117.686 14.0977 116.104 13.1602 114.75 11.2852C114.646 11.1419 114.509 10.9466 114.34 10.6992C114.184 10.4518 113.891 10.0156 113.461 9.39062C113.253 9.09115 113.064 8.84375 112.895 8.64844C112.738 8.4401 112.549 8.28385 112.328 8.17969C112.12 8.07552 111.833 8.02344 111.469 8.02344C111.326 8.02344 111.208 8.04297 111.117 8.08203C111.039 8.12109 111 8.21224 111 8.35547V11.2266C111 12.0859 111.052 12.6523 111.156 12.9258C111.208 13.0299 111.332 13.1276 111.527 13.2188C111.736 13.3099 111.957 13.3815 112.191 13.4336C112.426 13.4727 112.595 13.4922 112.699 13.4922C112.751 13.4922 112.777 13.5833 112.777 13.7656C112.777 13.8568 112.764 13.9544 112.738 14.0586C112.087 14.0326 111.547 14.0065 111.117 13.9805C110.701 13.9544 110.395 13.9479 110.199 13.9609L107.816 14.0586C107.777 14.0195 107.758 13.9023 107.758 13.707C107.758 13.5378 107.777 13.4531 107.816 13.4531C107.947 13.4531 108.103 13.4336 108.285 13.3945C108.48 13.3555 108.663 13.3099 108.832 13.2578C109.014 13.1927 109.125 13.1211 109.164 13.043C109.255 12.8997 109.301 12.2878 109.301 11.207V3.82422C109.301 3.44661 109.288 3.11458 109.262 2.82812C109.249 2.54167 109.216 2.3138 109.164 2.14453C109.138 2.06641 109.034 1.99479 108.852 1.92969C108.682 1.86458 108.493 1.8125 108.285 1.77344C108.09 1.73438 107.934 1.71484 107.816 1.71484C107.764 1.71484 107.738 1.63672 107.738 1.48047C107.738 1.3112 107.764 1.20052 107.816 1.14844L110.16 1.1875C110.538 1.20052 111 1.19401 111.547 1.16797C112.094 1.12891 112.549 1.10938 112.914 1.10938C113.617 1.10938 114.288 1.24609 114.926 1.51953C115.577 1.79297 116.104 2.19661 116.508 2.73047C116.924 3.26432 117.133 3.91536 117.133 4.68359C117.133 5.23047 116.924 5.80339 116.508 6.40234C116.104 7.0013 115.551 7.46354 114.848 7.78906C114.717 7.84115 114.678 7.90625 114.73 7.98438C115.368 9.33854 116.117 10.4844 116.977 11.4219C118.227 12.7891 119.242 13.4727 120.023 13.4727C120.062 13.5508 120.082 13.6419 120.082 13.7461C120.082 13.8633 120.062 13.9609 120.023 14.0391C119.893 14.0781 119.717 14.0977 119.496 14.0977ZM112.699 7.18359H113.188C113.5 7.18359 113.819 7.07943 114.145 6.87109C114.483 6.66276 114.763 6.36979 114.984 5.99219C115.219 5.61458 115.336 5.17839 115.336 4.68359C115.336 2.8737 114.424 1.96875 112.602 1.96875C112.003 1.96875 111.547 2.01432 111.234 2.10547C111.117 2.13151 111.046 2.34635 111.02 2.75C111.007 3.14062 111 3.64193 111 4.25391V6.61719C111 6.99479 111.566 7.18359 112.699 7.18359ZM127.055 14.1562C126.951 14.1562 126.898 14.0521 126.898 13.8438V12.8477C126.898 12.7826 126.885 12.75 126.859 12.75C126 13.6745 125.147 14.1367 124.301 14.1367C123.689 14.1367 123.201 13.9609 122.836 13.6094C122.484 13.2448 122.23 12.7891 122.074 12.2422C121.931 11.6823 121.859 11.1029 121.859 10.5039V8.04297C121.859 7.54818 121.768 7.19661 121.586 6.98828C121.456 6.83203 121.299 6.72786 121.117 6.67578C120.948 6.6237 120.792 6.59766 120.648 6.59766C120.518 6.58464 120.453 6.5651 120.453 6.53906C120.453 6.22656 120.492 6.0638 120.57 6.05078C121.26 5.94661 121.814 5.85547 122.23 5.77734C122.66 5.6862 122.908 5.63411 122.973 5.62109L123.363 5.52344C123.415 5.51042 123.448 5.5625 123.461 5.67969C123.474 5.79688 123.474 5.88151 123.461 5.93359C123.383 6.55859 123.344 7.04036 123.344 7.37891V10.0156C123.344 11.0182 123.493 11.7604 123.793 12.2422C124.092 12.7109 124.581 12.9453 125.258 12.9453C125.518 12.9453 125.772 12.8737 126.02 12.7305C126.28 12.5872 126.488 12.418 126.645 12.2227C126.814 12.0143 126.898 11.8385 126.898 11.6953V8.04297C126.898 7.54818 126.807 7.19661 126.625 6.98828C126.495 6.83203 126.339 6.72786 126.156 6.67578C125.987 6.6237 125.831 6.59115 125.688 6.57812C125.557 6.5651 125.492 6.55208 125.492 6.53906C125.492 6.22656 125.531 6.0638 125.609 6.05078C126.299 5.94661 126.814 5.86198 127.152 5.79688C127.504 5.73177 127.784 5.67318 127.992 5.62109L128.402 5.52344C128.454 5.51042 128.487 5.5625 128.5 5.67969C128.513 5.79688 128.513 5.88151 128.5 5.93359C128.422 6.55859 128.383 7.02734 128.383 7.33984V11.2461C128.383 11.832 128.428 12.3268 128.52 12.7305C128.559 12.8607 128.663 12.9453 128.832 12.9844C129.001 13.0104 129.197 13.0365 129.418 13.0625L129.672 13.082C129.711 13.0951 129.73 13.1667 129.73 13.2969C129.73 13.3359 129.711 13.401 129.672 13.4922C129.646 13.5703 129.613 13.6094 129.574 13.6094C129.184 13.6354 128.754 13.707 128.285 13.8242C127.816 13.9284 127.465 14.026 127.23 14.1172L127.055 14.1562ZM130.707 14.0586C130.655 14.0065 130.629 13.8958 130.629 13.7266C130.629 13.5703 130.655 13.4922 130.707 13.4922C130.811 13.4922 130.954 13.4727 131.137 13.4336C131.319 13.3945 131.488 13.3424 131.645 13.2773C131.801 13.2122 131.885 13.1536 131.898 13.1016C131.951 12.9193 131.983 12.7109 131.996 12.4766C132.022 12.2422 132.035 11.9948 132.035 11.7344V8.04297C132.035 7.54818 131.944 7.19661 131.762 6.98828C131.632 6.83203 131.475 6.72786 131.293 6.67578C131.124 6.6237 130.967 6.59766 130.824 6.59766C130.694 6.58464 130.629 6.5651 130.629 6.53906C130.629 6.22656 130.668 6.0638 130.746 6.05078C132.165 5.82943 132.986 5.6862 133.207 5.62109L133.539 5.52344C133.591 5.51042 133.624 5.5625 133.637 5.67969C133.65 5.79688 133.65 5.88151 133.637 5.93359L133.52 6.91016C133.754 6.55859 134.073 6.23307 134.477 5.93359C134.893 5.62109 135.303 5.46484 135.707 5.46484C136.462 5.46484 136.97 5.65365 137.23 6.03125C137.23 6.48698 137.159 6.81901 137.016 7.02734C136.872 7.23568 136.697 7.33984 136.488 7.33984C136.254 7.33984 136.039 7.22917 135.844 7.00781C135.648 6.78646 135.382 6.67578 135.043 6.67578C134.783 6.67578 134.535 6.76693 134.301 6.94922C134.066 7.11849 133.878 7.33984 133.734 7.61328C133.604 7.8737 133.539 8.14714 133.539 8.43359V11.3633C133.539 11.7409 133.552 12.0729 133.578 12.3594C133.604 12.6458 133.643 12.8932 133.695 13.1016C133.721 13.1536 133.812 13.2122 133.969 13.2773C134.125 13.3424 134.294 13.3945 134.477 13.4336C134.672 13.4727 134.809 13.4922 134.887 13.4922C134.926 13.4922 134.952 13.5703 134.965 13.7266C134.978 13.8828 134.971 13.9935 134.945 14.0586L132.836 13.9609L130.707 14.0586ZM140.238 14.1367C139.639 14.1367 139.145 13.9805 138.754 13.668C138.363 13.3424 138.168 12.8607 138.168 12.2227C138.168 11.4414 138.676 10.7904 139.691 10.2695C140.134 10.0482 140.57 9.8724 141 9.74219C141.443 9.61198 141.885 9.46224 142.328 9.29297C142.445 9.25391 142.504 9.15625 142.504 9V7.53516C142.504 7.11849 142.374 6.79948 142.113 6.57812C141.853 6.34375 141.54 6.22656 141.176 6.22656C140.785 6.22656 140.46 6.36328 140.199 6.63672C139.939 6.89714 139.809 7.24219 139.809 7.67188C139.809 8.1276 139.542 8.35547 139.008 8.35547C138.63 8.35547 138.376 8.23177 138.246 7.98438C138.246 7.71094 138.357 7.43099 138.578 7.14453C138.812 6.84505 139.112 6.57161 139.477 6.32422C139.841 6.07682 140.238 5.875 140.668 5.71875C141.111 5.5625 141.547 5.48438 141.977 5.48438C142.693 5.48438 143.207 5.66016 143.52 6.01172C143.832 6.35026 143.988 6.90365 143.988 7.67188V12.1836C143.988 12.457 144.06 12.6849 144.203 12.8672C144.346 13.0495 144.542 13.1406 144.789 13.1406C144.958 13.1406 145.186 13.0495 145.473 12.8672C145.525 12.8672 145.551 12.9193 145.551 13.0234C145.551 13.1927 145.518 13.3294 145.453 13.4336C144.919 13.8893 144.464 14.1172 144.086 14.1172C143.786 14.1172 143.5 13.9935 143.227 13.7461C142.953 13.4987 142.764 13.2383 142.66 12.9648C142.595 13.0169 142.51 13.0885 142.406 13.1797C142.315 13.2578 142.237 13.3229 142.172 13.375C141.898 13.5833 141.599 13.7656 141.273 13.9219C140.961 14.0651 140.616 14.1367 140.238 14.1367ZM140.98 13.0234C141.345 13.0234 141.69 12.9193 142.016 12.7109C142.341 12.5026 142.504 12.2812 142.504 12.0469V10.0352C142.165 10.1654 141.84 10.2826 141.527 10.3867C141.228 10.4909 140.987 10.5755 140.805 10.6406C140.57 10.7318 140.342 10.8945 140.121 11.1289C139.913 11.3633 139.809 11.6302 139.809 11.9297C139.809 12.3203 139.926 12.6003 140.16 12.7695C140.408 12.9388 140.681 13.0234 140.98 13.0234ZM146.039 14.0586C145.987 14.0065 145.961 13.8958 145.961 13.7266C145.961 13.5703 145.987 13.4922 146.039 13.4922C146.143 13.4922 146.286 13.4727 146.469 13.4336C146.651 13.3945 146.82 13.3424 146.977 13.2773C147.133 13.2122 147.217 13.1536 147.23 13.1016C147.283 12.9193 147.315 12.7109 147.328 12.4766C147.354 12.2422 147.367 11.9948 147.367 11.7344V3.27734C147.367 2.83464 147.328 2.41797 147.25 2.02734C147.198 1.81901 146.866 1.71484 146.254 1.71484H146.078C146 1.71484 145.961 1.64323 145.961 1.5C145.961 1.29167 146 1.1875 146.078 1.1875C146.859 1.09635 147.439 0.992188 147.816 0.875C148.194 0.757812 148.454 0.653646 148.598 0.5625L148.793 0.445312H148.832C148.884 0.445312 148.936 0.484375 148.988 0.5625C149.04 0.627604 149.073 0.692708 149.086 0.757812C148.943 1.1875 148.871 1.75391 148.871 2.45703V11.3633C148.871 11.7409 148.884 12.0729 148.91 12.3594C148.936 12.6458 148.975 12.8932 149.027 13.1016C149.053 13.1536 149.145 13.2122 149.301 13.2773C149.457 13.3424 149.626 13.3945 149.809 13.4336C149.991 13.4727 150.121 13.4922 150.199 13.4922C150.238 13.4922 150.264 13.5703 150.277 13.7266C150.29 13.8828 150.284 13.9935 150.258 14.0586L148.168 13.9609L146.039 14.0586ZM162.094 14.1172C161.234 14.1172 160.427 13.9479 159.672 13.6094C158.93 13.2708 158.272 12.8086 157.699 12.2227C157.139 11.6367 156.697 10.9596 156.371 10.1914C156.059 9.41016 155.902 8.58333 155.902 7.71094C155.902 6.78646 156.065 5.92057 156.391 5.11328C156.716 4.29297 157.172 3.57682 157.758 2.96484C158.344 2.33984 159.021 1.85156 159.789 1.5C160.57 1.14844 161.41 0.972656 162.309 0.972656C163.233 0.972656 164.776 1.26562 166.938 1.85156L167.016 4.27344C167.016 4.46875 166.879 4.56641 166.605 4.56641C166.475 4.56641 166.391 4.53385 166.352 4.46875C166 2.6849 164.672 1.79297 162.367 1.79297C161.508 1.79297 160.733 2.04688 160.043 2.55469C159.353 3.0625 158.806 3.74609 158.402 4.60547C157.999 5.46484 157.797 6.41536 157.797 7.45703C157.797 8.17318 157.921 8.88281 158.168 9.58594C158.428 10.276 158.78 10.901 159.223 11.4609C159.678 12.0078 160.212 12.4505 160.824 12.7891C161.449 13.1146 162.12 13.2773 162.836 13.2773C163.995 13.2773 164.841 13.1341 165.375 12.8477C165.466 12.8086 165.512 12.7109 165.512 12.5547L165.492 10.9531V10.8164C165.492 9.98307 165.44 9.42318 165.336 9.13672C165.31 9.04557 165.199 8.97396 165.004 8.92188C164.809 8.85677 164.6 8.80469 164.379 8.76562C164.158 8.72656 163.975 8.70703 163.832 8.70703C163.78 8.70703 163.754 8.6224 163.754 8.45312C163.754 8.29688 163.78 8.19271 163.832 8.14062L166.391 8.23828L168.5 8.14062C168.526 8.24479 168.539 8.33594 168.539 8.41406C168.539 8.60938 168.513 8.70703 168.461 8.70703C168.409 8.70703 168.305 8.72656 168.148 8.76562C168.005 8.80469 167.849 8.85026 167.68 8.90234C167.523 8.95443 167.406 9.00651 167.328 9.05859C167.198 9.14974 167.133 9.58594 167.133 10.3672C167.133 10.4974 167.133 10.6406 167.133 10.7969C167.146 10.9401 167.159 11.0898 167.172 11.2461L167.191 11.7734C167.191 12.0339 167.237 12.2617 167.328 12.457C167.419 12.6523 167.465 12.7826 167.465 12.8477C167.465 12.9518 167.302 13.069 166.977 13.1992C166.768 13.3034 166.592 13.375 166.449 13.4141C166.306 13.4531 166.208 13.4857 166.156 13.5117C166.091 13.5378 165.948 13.5898 165.727 13.668C165.505 13.7331 165.323 13.7786 165.18 13.8047C164.828 13.8698 164.503 13.9284 164.203 13.9805C163.904 14.0195 163.591 14.0521 163.266 14.0781C162.94 14.1042 162.549 14.1172 162.094 14.1172ZM174.008 14.1367C173.227 14.1367 172.51 13.9414 171.859 13.5508C171.208 13.1602 170.688 12.6328 170.297 11.9688C169.919 11.3047 169.73 10.5755 169.73 9.78125C169.73 8.97396 169.913 8.24479 170.277 7.59375C170.655 6.94271 171.163 6.42839 171.801 6.05078C172.439 5.66016 173.161 5.46484 173.969 5.46484C174.75 5.46484 175.46 5.66016 176.098 6.05078C176.749 6.44141 177.263 6.96224 177.641 7.61328C178.031 8.26432 178.227 8.98698 178.227 9.78125C178.227 10.5755 178.038 11.3047 177.66 11.9688C177.283 12.6328 176.775 13.1602 176.137 13.5508C175.512 13.9414 174.802 14.1367 174.008 14.1367ZM174.184 13.375C174.652 13.375 175.062 13.2253 175.414 12.9258C175.766 12.6263 176.039 12.2227 176.234 11.7148C176.443 11.207 176.547 10.6536 176.547 10.0547C176.547 9.35156 176.417 8.71354 176.156 8.14062C175.896 7.55469 175.551 7.09245 175.121 6.75391C174.704 6.40234 174.249 6.22656 173.754 6.22656C173.298 6.22656 172.888 6.3763 172.523 6.67578C172.172 6.96224 171.898 7.35286 171.703 7.84766C171.508 8.32943 171.41 8.8763 171.41 9.48828C171.41 10.1914 171.534 10.8424 171.781 11.4414C172.042 12.0273 172.38 12.4961 172.797 12.8477C173.227 13.1992 173.689 13.375 174.184 13.375ZM183.578 14.1367C183.474 13.8893 183.298 13.4857 183.051 12.9258C182.816 12.3659 182.51 11.6497 182.133 10.7773C181.755 9.89193 181.404 9.09766 181.078 8.39453C180.753 7.67839 180.447 7.04036 180.16 6.48047C180.017 6.22005 179.633 6.08984 179.008 6.08984C178.956 6.08984 178.93 6.00521 178.93 5.83594C178.93 5.67969 178.956 5.57552 179.008 5.52344C179.346 5.53646 179.685 5.55599 180.023 5.58203C180.362 5.60807 180.701 5.62109 181.039 5.62109C181.365 5.62109 181.69 5.60807 182.016 5.58203C182.341 5.55599 182.667 5.53646 182.992 5.52344C183.018 5.57552 183.018 5.6862 182.992 5.85547C182.979 6.01172 182.953 6.08984 182.914 6.08984C182.276 6.08984 181.957 6.20052 181.957 6.42188C181.957 6.4349 181.964 6.46094 181.977 6.5C181.99 6.52604 182.003 6.55208 182.016 6.57812L184.32 11.793L186.293 7.30078C186.358 7.17057 186.397 7.0599 186.41 6.96875C186.436 6.86458 186.449 6.77995 186.449 6.71484C186.449 6.29818 185.98 6.08984 185.043 6.08984C184.991 6.08984 184.965 6.00521 184.965 5.83594C184.965 5.67969 184.991 5.57552 185.043 5.52344C185.186 5.53646 185.453 5.5625 185.844 5.60156C186.234 5.6276 186.586 5.63411 186.898 5.62109L188.852 5.52344C188.878 5.6276 188.891 5.72526 188.891 5.81641C188.891 5.9987 188.845 6.08984 188.754 6.08984C188.572 6.08984 188.331 6.14193 188.031 6.24609C187.732 6.35026 187.53 6.51953 187.426 6.75391L184.32 13.7656C184.229 13.974 184.092 14.1042 183.91 14.1562C183.728 14.2214 183.617 14.2148 183.578 14.1367ZM193.266 14.1172C192.549 14.1172 191.892 13.9284 191.293 13.5508C190.694 13.1732 190.212 12.6719 189.848 12.0469C189.496 11.4089 189.32 10.6992 189.32 9.91797C189.32 9.00651 189.49 8.21875 189.828 7.55469C190.167 6.89062 190.629 6.38281 191.215 6.03125C191.801 5.66667 192.458 5.48438 193.188 5.48438C193.786 5.48438 194.314 5.60156 194.77 5.83594C195.225 6.05729 195.577 6.34375 195.824 6.69531C196.059 7.0599 196.228 7.43099 196.332 7.80859C196.449 8.17318 196.508 8.53776 196.508 8.90234C196.508 9.16276 196.469 9.32552 196.391 9.39062C196.312 9.44271 196.163 9.46875 195.941 9.46875H191.02C190.915 9.46875 190.863 9.5013 190.863 9.56641C190.863 10.1133 190.974 10.6406 191.195 11.1484C191.417 11.6432 191.742 12.0534 192.172 12.3789C192.602 12.7044 193.129 12.8672 193.754 12.8672C194.301 12.8672 194.757 12.7891 195.121 12.6328C195.499 12.4635 195.772 12.3138 195.941 12.1836L196.078 12.0859C196.156 12.0859 196.195 12.1706 196.195 12.3398C196.195 12.431 196.156 12.5482 196.078 12.6914C195.818 13.056 195.434 13.388 194.926 13.6875C194.418 13.974 193.865 14.1172 193.266 14.1172ZM191.02 8.64844H194.828C194.893 8.64844 194.926 8.58333 194.926 8.45312C194.926 8.16667 194.848 7.85417 194.691 7.51562C194.548 7.16406 194.327 6.85807 194.027 6.59766C193.728 6.33724 193.35 6.20703 192.895 6.20703C192.478 6.20703 192.12 6.35026 191.82 6.63672C191.521 6.91016 191.293 7.22917 191.137 7.59375C190.98 7.94531 190.902 8.2513 190.902 8.51172C190.902 8.60286 190.941 8.64844 191.02 8.64844ZM197.719 14.0586C197.667 14.0065 197.641 13.8958 197.641 13.7266C197.641 13.5703 197.667 13.4922 197.719 13.4922C197.823 13.4922 197.966 13.4727 198.148 13.4336C198.331 13.3945 198.5 13.3424 198.656 13.2773C198.812 13.2122 198.897 13.1536 198.91 13.1016C198.962 12.9193 198.995 12.7109 199.008 12.4766C199.034 12.2422 199.047 11.9948 199.047 11.7344V8.04297C199.047 7.54818 198.956 7.19661 198.773 6.98828C198.643 6.83203 198.487 6.72786 198.305 6.67578C198.135 6.6237 197.979 6.59766 197.836 6.59766C197.706 6.58464 197.641 6.5651 197.641 6.53906C197.641 6.22656 197.68 6.0638 197.758 6.05078C199.177 5.82943 199.997 5.6862 200.219 5.62109L200.551 5.52344C200.603 5.51042 200.635 5.5625 200.648 5.67969C200.661 5.79688 200.661 5.88151 200.648 5.93359L200.531 6.91016C200.766 6.55859 201.085 6.23307 201.488 5.93359C201.905 5.62109 202.315 5.46484 202.719 5.46484C203.474 5.46484 203.982 5.65365 204.242 6.03125C204.242 6.48698 204.171 6.81901 204.027 7.02734C203.884 7.23568 203.708 7.33984 203.5 7.33984C203.266 7.33984 203.051 7.22917 202.855 7.00781C202.66 6.78646 202.393 6.67578 202.055 6.67578C201.794 6.67578 201.547 6.76693 201.312 6.94922C201.078 7.11849 200.889 7.33984 200.746 7.61328C200.616 7.8737 200.551 8.14714 200.551 8.43359V11.3633C200.551 11.7409 200.564 12.0729 200.59 12.3594C200.616 12.6458 200.655 12.8932 200.707 13.1016C200.733 13.1536 200.824 13.2122 200.98 13.2773C201.137 13.3424 201.306 13.3945 201.488 13.4336C201.684 13.4727 201.82 13.4922 201.898 13.4922C201.938 13.4922 201.964 13.5703 201.977 13.7266C201.99 13.8828 201.983 13.9935 201.957 14.0586L199.848 13.9609L197.719 14.0586ZM205.062 14.0586C205.01 14.0065 204.984 13.8958 204.984 13.7266C204.984 13.5703 205.01 13.4922 205.062 13.4922C205.167 13.4922 205.31 13.4727 205.492 13.4336C205.674 13.3945 205.844 13.3424 206 13.2773C206.156 13.2122 206.241 13.1536 206.254 13.1016C206.306 12.9193 206.339 12.7109 206.352 12.4766C206.378 12.2422 206.391 11.9948 206.391 11.7344V8.04297C206.391 7.54818 206.299 7.19661 206.117 6.98828C205.987 6.83203 205.831 6.72786 205.648 6.67578C205.479 6.6237 205.323 6.59766 205.18 6.59766C205.049 6.58464 204.984 6.5651 204.984 6.53906C204.984 6.22656 205.023 6.0638 205.102 6.05078C205.792 5.94661 206.352 5.85547 206.781 5.77734C207.211 5.6862 207.478 5.6276 207.582 5.60156L207.895 5.52344C207.947 5.51042 207.979 5.5625 207.992 5.67969C208.005 5.79688 208.005 5.88151 207.992 5.93359C207.966 6.11589 207.947 6.27214 207.934 6.40234C207.921 6.53255 207.914 6.63672 207.914 6.71484C207.914 6.76693 207.927 6.79297 207.953 6.79297C207.966 6.79297 207.986 6.77995 208.012 6.75391C208.311 6.44141 208.715 6.14844 209.223 5.875C209.743 5.58854 210.238 5.44531 210.707 5.44531C211.618 5.44531 212.257 5.77083 212.621 6.42188C212.986 7.07292 213.168 8.1276 213.168 9.58594V11.3633C213.168 11.7409 213.181 12.0729 213.207 12.3594C213.233 12.6458 213.272 12.8932 213.324 13.1016C213.35 13.1536 213.441 13.2122 213.598 13.2773C213.754 13.3424 213.923 13.3945 214.105 13.4336C214.288 13.4727 214.418 13.4922 214.496 13.4922C214.535 13.4922 214.561 13.5703 214.574 13.7266C214.587 13.8828 214.581 13.9935 214.555 14.0586L212.465 13.9609L210.414 14.0586C210.362 14.0065 210.336 13.8958 210.336 13.7266C210.336 13.5703 210.362 13.4922 210.414 13.4922C210.518 13.4922 210.655 13.4727 210.824 13.4336C210.993 13.3945 211.15 13.3424 211.293 13.2773C211.436 13.2122 211.514 13.1536 211.527 13.1016C211.579 12.9193 211.612 12.7109 211.625 12.4766C211.651 12.2422 211.664 11.9948 211.664 11.7344V9.78125C211.664 8.57031 211.508 7.74349 211.195 7.30078C210.883 6.85807 210.375 6.63672 209.672 6.63672C209.398 6.63672 209.125 6.71484 208.852 6.87109C208.578 7.01432 208.35 7.18359 208.168 7.37891C207.986 7.57422 207.895 7.75651 207.895 7.92578V11.3633C207.895 11.7409 207.908 12.0729 207.934 12.3594C207.96 12.6458 207.999 12.8932 208.051 13.1016C208.077 13.1536 208.168 13.2122 208.324 13.2773C208.48 13.3424 208.65 13.3945 208.832 13.4336C209.014 13.4727 209.145 13.4922 209.223 13.4922C209.262 13.4922 209.288 13.5703 209.301 13.7266C209.314 13.8828 209.307 13.9935 209.281 14.0586L207.191 13.9609L205.062 14.0586ZM217.855 14.1367C217.257 14.1367 216.762 13.9805 216.371 13.668C215.98 13.3424 215.785 12.8607 215.785 12.2227C215.785 11.4414 216.293 10.7904 217.309 10.2695C217.751 10.0482 218.188 9.8724 218.617 9.74219C219.06 9.61198 219.503 9.46224 219.945 9.29297C220.062 9.25391 220.121 9.15625 220.121 9V7.53516C220.121 7.11849 219.991 6.79948 219.73 6.57812C219.47 6.34375 219.158 6.22656 218.793 6.22656C218.402 6.22656 218.077 6.36328 217.816 6.63672C217.556 6.89714 217.426 7.24219 217.426 7.67188C217.426 8.1276 217.159 8.35547 216.625 8.35547C216.247 8.35547 215.993 8.23177 215.863 7.98438C215.863 7.71094 215.974 7.43099 216.195 7.14453C216.43 6.84505 216.729 6.57161 217.094 6.32422C217.458 6.07682 217.855 5.875 218.285 5.71875C218.728 5.5625 219.164 5.48438 219.594 5.48438C220.31 5.48438 220.824 5.66016 221.137 6.01172C221.449 6.35026 221.605 6.90365 221.605 7.67188V12.1836C221.605 12.457 221.677 12.6849 221.82 12.8672C221.964 13.0495 222.159 13.1406 222.406 13.1406C222.576 13.1406 222.803 13.0495 223.09 12.8672C223.142 12.8672 223.168 12.9193 223.168 13.0234C223.168 13.1927 223.135 13.3294 223.07 13.4336C222.536 13.8893 222.081 14.1172 221.703 14.1172C221.404 14.1172 221.117 13.9935 220.844 13.7461C220.57 13.4987 220.382 13.2383 220.277 12.9648C220.212 13.0169 220.128 13.0885 220.023 13.1797C219.932 13.2578 219.854 13.3229 219.789 13.375C219.516 13.5833 219.216 13.7656 218.891 13.9219C218.578 14.0651 218.233 14.1367 217.855 14.1367ZM218.598 13.0234C218.962 13.0234 219.307 12.9193 219.633 12.7109C219.958 12.5026 220.121 12.2812 220.121 12.0469V10.0352C219.783 10.1654 219.457 10.2826 219.145 10.3867C218.845 10.4909 218.604 10.5755 218.422 10.6406C218.188 10.7318 217.96 10.8945 217.738 11.1289C217.53 11.3633 217.426 11.6302 217.426 11.9297C217.426 12.3203 217.543 12.6003 217.777 12.7695C218.025 12.9388 218.298 13.0234 218.598 13.0234ZM223.93 14.0586C223.878 14.0065 223.852 13.8958 223.852 13.7266C223.852 13.5703 223.878 13.4922 223.93 13.4922C224.034 13.4922 224.177 13.4727 224.359 13.4336C224.542 13.3945 224.711 13.3424 224.867 13.2773C225.023 13.2122 225.108 13.1536 225.121 13.1016C225.173 12.9193 225.206 12.7109 225.219 12.4766C225.245 12.2422 225.258 11.9948 225.258 11.7344V8.04297C225.258 7.54818 225.167 7.19661 224.984 6.98828C224.854 6.83203 224.698 6.72786 224.516 6.67578C224.346 6.6237 224.19 6.59766 224.047 6.59766C223.917 6.58464 223.852 6.5651 223.852 6.53906C223.852 6.22656 223.891 6.0638 223.969 6.05078C224.659 5.94661 225.219 5.85547 225.648 5.77734C226.078 5.6862 226.345 5.6276 226.449 5.60156L226.762 5.52344C226.814 5.51042 226.846 5.5625 226.859 5.67969C226.872 5.79688 226.872 5.88151 226.859 5.93359C226.833 6.11589 226.814 6.27214 226.801 6.40234C226.788 6.53255 226.781 6.63672 226.781 6.71484C226.781 6.76693 226.794 6.79297 226.82 6.79297C226.833 6.79297 226.853 6.77995 226.879 6.75391C227.178 6.44141 227.582 6.14844 228.09 5.875C228.611 5.58854 229.105 5.44531 229.574 5.44531C230.486 5.44531 231.124 5.77083 231.488 6.42188C231.853 7.07292 232.035 8.1276 232.035 9.58594V11.3633C232.035 11.7409 232.048 12.0729 232.074 12.3594C232.1 12.6458 232.139 12.8932 232.191 13.1016C232.217 13.1536 232.309 13.2122 232.465 13.2773C232.621 13.3424 232.79 13.3945 232.973 13.4336C233.155 13.4727 233.285 13.4922 233.363 13.4922C233.402 13.4922 233.428 13.5703 233.441 13.7266C233.454 13.8828 233.448 13.9935 233.422 14.0586L231.332 13.9609L229.281 14.0586C229.229 14.0065 229.203 13.8958 229.203 13.7266C229.203 13.5703 229.229 13.4922 229.281 13.4922C229.385 13.4922 229.522 13.4727 229.691 13.4336C229.861 13.3945 230.017 13.3424 230.16 13.2773C230.303 13.2122 230.382 13.1536 230.395 13.1016C230.447 12.9193 230.479 12.7109 230.492 12.4766C230.518 12.2422 230.531 11.9948 230.531 11.7344V9.78125C230.531 8.57031 230.375 7.74349 230.062 7.30078C229.75 6.85807 229.242 6.63672 228.539 6.63672C228.266 6.63672 227.992 6.71484 227.719 6.87109C227.445 7.01432 227.217 7.18359 227.035 7.37891C226.853 7.57422 226.762 7.75651 226.762 7.92578V11.3633C226.762 11.7409 226.775 12.0729 226.801 12.3594C226.827 12.6458 226.866 12.8932 226.918 13.1016C226.944 13.1536 227.035 13.2122 227.191 13.2773C227.348 13.3424 227.517 13.3945 227.699 13.4336C227.882 13.4727 228.012 13.4922 228.09 13.4922C228.129 13.4922 228.155 13.5703 228.168 13.7266C228.181 13.8828 228.174 13.9935 228.148 14.0586L226.059 13.9609L223.93 14.0586ZM238.559 14.1172C237.842 14.1172 237.185 13.9284 236.586 13.5508C235.987 13.1732 235.505 12.6719 235.141 12.0469C234.789 11.4089 234.613 10.6992 234.613 9.91797C234.613 9.11068 234.757 8.375 235.043 7.71094C235.342 7.03385 235.772 6.49349 236.332 6.08984C236.905 5.6862 237.595 5.48438 238.402 5.48438C239.835 5.48438 240.824 5.81641 241.371 6.48047C241.371 7.35286 241.13 7.78906 240.648 7.78906C240.427 7.78906 240.258 7.74349 240.141 7.65234C240.023 7.54818 239.874 7.36589 239.691 7.10547C239.288 6.50651 238.806 6.20703 238.246 6.20703C237.712 6.20703 237.224 6.46094 236.781 6.96875C236.352 7.47656 236.137 8.23177 236.137 9.23438C236.137 10.276 236.391 11.1419 236.898 11.832C237.419 12.5221 238.135 12.8672 239.047 12.8672C239.594 12.8672 240.049 12.7891 240.414 12.6328C240.792 12.4635 241.065 12.3138 241.234 12.1836L241.371 12.0859C241.449 12.0859 241.488 12.1706 241.488 12.3398C241.488 12.431 241.449 12.5482 241.371 12.6914C241.111 13.056 240.727 13.388 240.219 13.6875C239.711 13.974 239.158 14.1172 238.559 14.1172ZM246.469 14.1172C245.753 14.1172 245.095 13.9284 244.496 13.5508C243.897 13.1732 243.415 12.6719 243.051 12.0469C242.699 11.4089 242.523 10.6992 242.523 9.91797C242.523 9.00651 242.693 8.21875 243.031 7.55469C243.37 6.89062 243.832 6.38281 244.418 6.03125C245.004 5.66667 245.661 5.48438 246.391 5.48438C246.99 5.48438 247.517 5.60156 247.973 5.83594C248.428 6.05729 248.78 6.34375 249.027 6.69531C249.262 7.0599 249.431 7.43099 249.535 7.80859C249.652 8.17318 249.711 8.53776 249.711 8.90234C249.711 9.16276 249.672 9.32552 249.594 9.39062C249.516 9.44271 249.366 9.46875 249.145 9.46875H244.223C244.118 9.46875 244.066 9.5013 244.066 9.56641C244.066 10.1133 244.177 10.6406 244.398 11.1484C244.62 11.6432 244.945 12.0534 245.375 12.3789C245.805 12.7044 246.332 12.8672 246.957 12.8672C247.504 12.8672 247.96 12.7891 248.324 12.6328C248.702 12.4635 248.975 12.3138 249.145 12.1836L249.281 12.0859C249.359 12.0859 249.398 12.1706 249.398 12.3398C249.398 12.431 249.359 12.5482 249.281 12.6914C249.021 13.056 248.637 13.388 248.129 13.6875C247.621 13.974 247.068 14.1172 246.469 14.1172ZM244.223 8.64844H248.031C248.096 8.64844 248.129 8.58333 248.129 8.45312C248.129 8.16667 248.051 7.85417 247.895 7.51562C247.751 7.16406 247.53 6.85807 247.23 6.59766C246.931 6.33724 246.553 6.20703 246.098 6.20703C245.681 6.20703 245.323 6.35026 245.023 6.63672C244.724 6.91016 244.496 7.22917 244.34 7.59375C244.184 7.94531 244.105 8.2513 244.105 8.51172C244.105 8.60286 244.145 8.64844 244.223 8.64844ZM259.633 14.2148C259.49 14.2148 259.411 14.1888 259.398 14.1367C259.242 13.7852 259.073 13.401 258.891 12.9844C258.721 12.5547 258.539 12.0924 258.344 11.5977C257.94 10.6211 257.562 9.74219 257.211 8.96094C256.859 8.16667 256.449 7.35286 255.98 6.51953C255.811 6.23307 255.46 6.08984 254.926 6.08984C254.874 6.08984 254.848 6.00521 254.848 5.83594C254.848 5.67969 254.874 5.57552 254.926 5.52344C255.199 5.53646 255.505 5.5625 255.844 5.60156C256.182 5.6276 256.521 5.63411 256.859 5.62109L258.812 5.52344C258.839 5.57552 258.845 5.6862 258.832 5.85547C258.832 6.01172 258.812 6.08984 258.773 6.08984C258.122 6.08984 257.797 6.23958 257.797 6.53906C257.797 6.63021 258.012 7.11849 258.441 8.00391C258.871 8.8763 259.431 10.0938 260.121 11.6562C260.577 10.3672 260.935 9.35156 261.195 8.60938C261.469 7.86719 261.605 7.44401 261.605 7.33984C261.605 7.27474 261.566 7.16406 261.488 7.00781C261.423 6.85156 261.339 6.67578 261.234 6.48047C261.13 6.32422 260.987 6.22005 260.805 6.16797C260.622 6.11589 260.434 6.08984 260.238 6.08984C260.186 6.08984 260.16 6.00521 260.16 5.83594C260.16 5.67969 260.186 5.57552 260.238 5.52344C260.512 5.53646 260.811 5.55599 261.137 5.58203C261.475 5.60807 261.807 5.62109 262.133 5.62109C262.549 5.62109 262.914 5.60807 263.227 5.58203C263.552 5.55599 263.826 5.53646 264.047 5.52344C264.073 5.6276 264.086 5.73828 264.086 5.85547C264.086 5.98568 264.066 6.0638 264.027 6.08984C263.402 6.08984 263.09 6.34375 263.09 6.85156C263.09 7.11198 263.806 8.71354 265.238 11.6562C265.499 10.849 265.753 10.1068 266 9.42969C266.247 8.73958 266.449 8.16667 266.605 7.71094C266.762 7.24219 266.84 6.92969 266.84 6.77344C266.84 6.31771 266.41 6.08984 265.551 6.08984H265.473C265.421 6.08984 265.395 6.00521 265.395 5.83594C265.395 5.67969 265.421 5.57552 265.473 5.52344C265.759 5.53646 266.072 5.55599 266.41 5.58203C266.749 5.60807 267.094 5.62109 267.445 5.62109C267.758 5.62109 268.057 5.60807 268.344 5.58203C268.643 5.55599 268.923 5.53646 269.184 5.52344C269.21 5.6276 269.223 5.72526 269.223 5.81641C269.223 5.9987 269.19 6.08984 269.125 6.08984C268.956 6.08984 268.728 6.14844 268.441 6.26562C268.155 6.36979 267.966 6.54557 267.875 6.79297L265.316 13.7852C265.225 14.0716 265.043 14.2148 264.77 14.2148C264.626 14.2148 264.548 14.1888 264.535 14.1367L262.133 8.39453L260.16 13.7852C260.121 13.8763 260.049 13.9674 259.945 14.0586C259.854 14.1628 259.75 14.2148 259.633 14.2148ZM269.711 14.0586C269.659 14.0065 269.633 13.8958 269.633 13.7266C269.633 13.5703 269.659 13.4922 269.711 13.4922C269.815 13.4922 269.958 13.4727 270.141 13.4336C270.323 13.3945 270.492 13.3424 270.648 13.2773C270.805 13.2122 270.889 13.1536 270.902 13.1016C270.954 12.9193 270.987 12.7109 271 12.4766C271.026 12.2422 271.039 11.9948 271.039 11.7344V8.04297C271.039 7.54818 270.948 7.19661 270.766 6.98828C270.635 6.81901 270.479 6.71484 270.297 6.67578C270.115 6.6237 269.958 6.59766 269.828 6.59766C269.698 6.58464 269.633 6.5651 269.633 6.53906C269.633 6.22656 269.672 6.0638 269.75 6.05078C270.44 5.94661 270.967 5.86198 271.332 5.79688C271.697 5.71875 272.022 5.64714 272.309 5.58203L272.543 5.52344C272.595 5.51042 272.628 5.5625 272.641 5.67969C272.654 5.79688 272.654 5.88151 272.641 5.93359C272.615 6.19401 272.589 6.44141 272.562 6.67578C272.549 6.91016 272.543 7.13151 272.543 7.33984V11.3633C272.543 11.7409 272.556 12.0729 272.582 12.3594C272.608 12.6458 272.647 12.8932 272.699 13.1016C272.725 13.1536 272.816 13.2122 272.973 13.2773C273.129 13.3424 273.298 13.3945 273.48 13.4336C273.663 13.4727 273.793 13.4922 273.871 13.4922C273.91 13.4922 273.936 13.5703 273.949 13.7266C273.962 13.8828 273.956 13.9935 273.93 14.0586L271.84 13.9609L269.711 14.0586ZM271.645 3.39453C271.384 3.39453 271.156 3.29688 270.961 3.10156C270.766 2.90625 270.668 2.67839 270.668 2.41797C270.668 2.14453 270.766 1.91667 270.961 1.73438C271.156 1.53906 271.384 1.44141 271.645 1.44141C271.918 1.44141 272.146 1.53906 272.328 1.73438C272.523 1.91667 272.621 2.14453 272.621 2.41797C272.621 2.67839 272.523 2.90625 272.328 3.10156C272.146 3.29688 271.918 3.39453 271.645 3.39453ZM278.363 14.1367C277.712 14.1367 277.165 13.9219 276.723 13.4922C276.293 13.0625 276.078 12.4505 276.078 11.6562V6.69531H274.945C274.88 6.69531 274.848 6.55859 274.848 6.28516C274.848 6.20703 274.854 6.16146 274.867 6.14844C275.258 5.96615 275.668 5.62109 276.098 5.11328C276.397 4.76172 276.618 4.45573 276.762 4.19531C276.918 3.9349 276.996 3.77865 276.996 3.72656C277.387 3.72656 277.582 3.75911 277.582 3.82422V5.75781L279.125 5.77734H280.219C280.323 5.77734 280.375 5.83594 280.375 5.95312C280.375 6.20052 280.31 6.44792 280.18 6.69531H277.582V11.4805C277.582 12.0013 277.712 12.418 277.973 12.7305C278.246 13.043 278.598 13.1992 279.027 13.1992C279.431 13.1992 279.835 13.0755 280.238 12.8281C280.277 12.8021 280.336 12.8607 280.414 13.0039C280.492 13.1341 280.525 13.2057 280.512 13.2188C280.316 13.4271 280.017 13.6354 279.613 13.8438C279.21 14.0391 278.793 14.1367 278.363 14.1367ZM281.078 14.0586C281.026 14.0065 281 13.8958 281 13.7266C281 13.5703 281.026 13.4922 281.078 13.4922C281.182 13.4922 281.326 13.4727 281.508 13.4336C281.69 13.3945 281.859 13.3424 282.016 13.2773C282.172 13.2122 282.257 13.1536 282.27 13.1016C282.361 12.75 282.406 12.3008 282.406 11.7539V3.27734C282.406 2.83464 282.367 2.41797 282.289 2.02734C282.237 1.81901 281.905 1.71484 281.293 1.71484H281.117C281.039 1.71484 281 1.64323 281 1.5C281 1.29167 281.039 1.1875 281.117 1.1875C281.781 1.1224 282.341 1.01823 282.797 0.875C283.253 0.71875 283.565 0.595052 283.734 0.503906L283.832 0.445312H283.871C283.923 0.445312 283.975 0.484375 284.027 0.5625C284.079 0.627604 284.112 0.692708 284.125 0.757812C283.982 1.1875 283.91 1.75391 283.91 2.45703V6.73438C283.91 6.78646 283.923 6.8125 283.949 6.8125C283.962 6.8125 283.982 6.79948 284.008 6.77344C284.203 6.5651 284.451 6.36328 284.75 6.16797C285.062 5.95964 285.395 5.79036 285.746 5.66016C286.098 5.51693 286.43 5.44531 286.742 5.44531C287.615 5.44531 288.24 5.75781 288.617 6.38281C288.995 7.00781 289.184 7.97135 289.184 9.27344V11.3828C289.184 11.7474 289.197 12.0729 289.223 12.3594C289.249 12.6458 289.288 12.8932 289.34 13.1016C289.366 13.1536 289.457 13.2122 289.613 13.2773C289.77 13.3424 289.939 13.3945 290.121 13.4336C290.303 13.4727 290.434 13.4922 290.512 13.4922C290.551 13.4922 290.577 13.5703 290.59 13.7266C290.603 13.8828 290.596 13.9935 290.57 14.0586L288.48 13.9609L286.43 14.0586C286.378 14.0065 286.352 13.8958 286.352 13.7266C286.352 13.5703 286.378 13.4922 286.43 13.4922C286.534 13.4922 286.671 13.4727 286.84 13.4336C287.009 13.3945 287.165 13.3424 287.309 13.2773C287.452 13.2122 287.53 13.1536 287.543 13.1016C287.595 12.9193 287.628 12.7109 287.641 12.4766C287.667 12.2422 287.68 11.9948 287.68 11.7344V9.66406C287.68 8.85677 287.608 8.23828 287.465 7.80859C287.322 7.36589 287.1 7.0599 286.801 6.89062C286.501 6.72135 286.117 6.63672 285.648 6.63672C285.388 6.63672 285.121 6.71484 284.848 6.87109C284.587 7.01432 284.366 7.18359 284.184 7.37891C284.001 7.57422 283.91 7.75 283.91 7.90625V11.3633C283.91 11.7409 283.923 12.0729 283.949 12.3594C283.975 12.6458 284.014 12.8932 284.066 13.1016C284.092 13.1536 284.184 13.2122 284.34 13.2773C284.496 13.3424 284.665 13.3945 284.848 13.4336C285.03 13.4727 285.16 13.4922 285.238 13.4922C285.277 13.4922 285.303 13.5703 285.316 13.7266C285.329 13.8828 285.323 13.9935 285.297 14.0586L283.207 13.9609L281.078 14.0586ZM85.7656 42.0781C85.4401 42.0781 85.0104 42.0716 84.4766 42.0586C83.9557 42.0586 83.3372 42.0521 82.6211 42.0391C81.9049 42.026 81.2539 42.013 80.668 42C80.082 42 79.5612 42 79.1055 42L76.7422 42.0586C76.7031 42.0195 76.6836 41.9154 76.6836 41.7461C76.6836 41.5768 76.7031 41.4922 76.7422 41.4922C76.8594 41.4922 77.0156 41.4727 77.2109 41.4336C77.4062 41.3815 77.5885 41.3229 77.7578 41.2578C77.9401 41.1927 78.0508 41.1211 78.0898 41.043C78.181 40.8997 78.2266 40.2878 78.2266 39.207V31.8242C78.2266 31.4466 78.2135 31.1146 78.1875 30.8281C78.1745 30.5417 78.1419 30.3138 78.0898 30.1445C78.0638 30.0664 77.9596 29.9948 77.7773 29.9297C77.6081 29.8646 77.4193 29.8125 77.2109 29.7734C77.0156 29.7344 76.8594 29.7148 76.7422 29.7148C76.6901 29.7148 76.6641 29.6367 76.6641 29.4805C76.6641 29.3112 76.6901 29.2005 76.7422 29.1484C77.0807 29.1615 77.4388 29.1745 77.8164 29.1875C78.207 29.1875 78.6237 29.1875 79.0664 29.1875C79.3659 29.1875 79.7695 29.181 80.2773 29.168C80.7852 29.1549 81.3971 29.1354 82.1133 29.1094C82.8424 29.0833 83.474 29.0638 84.0078 29.0508C84.5547 29.0378 85.0104 29.0312 85.375 29.0312C85.401 29.2135 85.4401 29.4349 85.4922 29.6953C85.5443 29.9427 85.6094 30.2161 85.6875 30.5156C85.7526 30.8281 85.8047 31.082 85.8438 31.2773C85.8958 31.4727 85.9284 31.6094 85.9414 31.6875C85.8763 31.7526 85.7591 31.7852 85.5898 31.7852C85.4206 31.7852 85.3294 31.7396 85.3164 31.6484C85.1211 30.9323 84.8477 30.4766 84.4961 30.2812C84.1445 30.0729 83.6628 29.9688 83.0508 29.9688H81.7422C80.6094 29.9688 80.0365 30.0534 80.0234 30.2227C79.9974 30.3789 79.9714 30.5938 79.9453 30.8672C79.9323 31.1406 79.9258 31.4727 79.9258 31.8633V34.9883C79.9258 35.0664 80.2057 35.1055 80.7656 35.1055H81.8008C82.2435 35.1055 82.543 35.1055 82.6992 35.1055C82.8555 35.0924 82.9661 35.0729 83.0312 35.0469C83.1094 35.0208 83.2526 34.9818 83.4609 34.9297C83.5911 34.9036 83.6888 34.7539 83.7539 34.4805C83.832 34.194 83.8971 33.9596 83.9492 33.7773C83.9622 33.6862 84.0599 33.6406 84.2422 33.6406C84.3984 33.6406 84.5091 33.6732 84.5742 33.7383V37.4297C84.5221 37.4818 84.418 37.5078 84.2617 37.5078C84.0924 37.5078 83.9883 37.4557 83.9492 37.3516C83.8971 37.1693 83.8516 37.013 83.8125 36.8828C83.7734 36.7526 83.7409 36.6419 83.7148 36.5508C83.6497 36.3685 83.5977 36.2643 83.5586 36.2383C83.5326 36.2122 83.4805 36.1732 83.4023 36.1211C83.2201 36.0169 82.5299 35.9648 81.332 35.9648C80.3945 35.9648 79.9258 36.0234 79.9258 36.1406V39.168C79.9258 40.0143 79.9844 40.6068 80.1016 40.9453C80.1406 41.0755 80.5833 41.1406 81.4297 41.1406H82.3672C83.5651 41.1406 84.3854 41.0299 84.8281 40.8086C85.0234 40.7044 85.2383 40.4766 85.4727 40.125C85.7201 39.7604 85.9154 39.3307 86.0586 38.8359C86.0846 38.7578 86.1758 38.7188 86.332 38.7188C86.5794 38.7188 86.7422 38.7578 86.8203 38.8359C86.7812 38.9401 86.7161 39.1029 86.625 39.3242C86.5469 39.5326 86.4688 39.7474 86.3906 39.9688C86.3125 40.1901 86.2474 40.3789 86.1953 40.5352C86.1172 40.7695 86.0326 41.0365 85.9414 41.3359C85.8503 41.6354 85.7917 41.8828 85.7656 42.0781ZM87.8555 42.0586C87.8034 42.0065 87.7773 41.9089 87.7773 41.7656C87.7773 41.5833 87.8034 41.4922 87.8555 41.4922C87.9596 41.4922 88.0964 41.4727 88.2656 41.4336C88.4349 41.3945 88.5911 41.3424 88.7344 41.2773C88.8906 41.2122 88.9753 41.1536 88.9883 41.1016C89.1055 40.6458 89.1641 40.0664 89.1641 39.3633C89.1771 38.4388 89.1836 37.6055 89.1836 36.8633C89.1966 36.1081 89.2031 35.444 89.2031 34.8711C89.2031 34.7799 89.1706 34.7344 89.1055 34.7344H88.0703C88.0312 34.7344 88.0117 34.6953 88.0117 34.6172C88.0117 34.487 88.0443 34.3242 88.1094 34.1289C88.1875 33.9206 88.2526 33.8164 88.3047 33.8164H89.1055C89.1706 33.8164 89.2031 33.7773 89.2031 33.6992V33.4453C89.2031 32.7812 89.3203 32.1628 89.5547 31.5898C89.8021 31.0039 90.1211 30.4961 90.5117 30.0664C90.9154 29.6367 91.3581 29.3047 91.8398 29.0703C92.3216 28.8229 92.8099 28.6992 93.3047 28.6992C93.9297 28.6992 94.457 28.849 94.8867 29.1484C95.3164 29.4479 95.6159 29.7409 95.7852 30.0273C96.6055 28.9596 97.5234 28.4258 98.5391 28.4258C99.0859 28.4258 99.6719 28.5755 100.297 28.875C101 29.2396 101.352 29.6302 101.352 30.0469C101.352 30.3203 101.273 30.5417 101.117 30.7109C100.961 30.8802 100.746 30.9648 100.473 30.9648C100.095 30.9648 99.8216 30.8216 99.6523 30.5352C99.457 30.1836 99.2227 29.8711 98.9492 29.5977C98.6888 29.3242 98.3503 29.1875 97.9336 29.1875C97.556 29.1875 97.2305 29.3503 96.957 29.6758C96.6836 30.0013 96.4753 30.4115 96.332 30.9062C96.2018 31.388 96.1367 31.8763 96.1367 32.3711V33.7188C96.1367 33.7839 96.1693 33.8164 96.2344 33.8164H98.4023C99.1315 33.8164 99.7305 33.7969 100.199 33.7578C100.668 33.7057 100.954 33.6602 101.059 33.6211L101.43 33.4844C101.495 33.4844 101.527 33.6341 101.527 33.9336C101.501 34.194 101.475 34.4414 101.449 34.6758C101.436 34.9102 101.43 35.1315 101.43 35.3398V39.3633C101.43 39.7409 101.443 40.0729 101.469 40.3594C101.495 40.6458 101.534 40.8932 101.586 41.1016C101.612 41.1536 101.703 41.2122 101.859 41.2773C102.016 41.3424 102.185 41.3945 102.367 41.4336C102.549 41.4727 102.68 41.4922 102.758 41.4922C102.797 41.4922 102.823 41.5703 102.836 41.7266C102.849 41.8828 102.842 41.9935 102.816 42.0586L100.727 41.9609L98.5977 42.0586C98.5456 42.0065 98.5195 41.8958 98.5195 41.7266C98.5195 41.5703 98.5456 41.4922 98.5977 41.4922C98.7018 41.4922 98.8451 41.4727 99.0273 41.4336C99.2096 41.3945 99.3789 41.3424 99.5352 41.2773C99.6914 41.2122 99.776 41.1536 99.7891 41.1016C99.8411 40.9193 99.8737 40.7109 99.8867 40.4766C99.9128 40.2422 99.9258 39.9948 99.9258 39.7344V35.9453C99.9258 35.5417 99.8477 35.2357 99.6914 35.0273C99.5612 34.832 99.0859 34.7344 98.2656 34.7344H96.2539C96.1758 34.7344 96.1367 34.7734 96.1367 34.8516V39.3633C96.1367 39.7409 96.1497 40.0729 96.1758 40.3594C96.2018 40.6458 96.2409 40.8932 96.293 41.1016C96.319 41.1536 96.4036 41.2122 96.5469 41.2773C96.6901 41.3424 96.8464 41.3945 97.0156 41.4336C97.1849 41.4727 97.3086 41.4922 97.3867 41.4922C97.4258 41.4922 97.4518 41.5703 97.4648 41.7266C97.4779 41.8828 97.4714 41.9935 97.4453 42.0586L95.3555 41.9609L93.3047 42.0586C93.2526 42.0065 93.2266 41.9089 93.2266 41.7656C93.2266 41.5833 93.2526 41.4922 93.3047 41.4922C93.4089 41.4922 93.5456 41.4727 93.7148 41.4336C93.8841 41.3945 94.0404 41.3424 94.1836 41.2773C94.3398 41.2122 94.4245 41.1536 94.4375 41.1016C94.5547 40.6458 94.6133 40.0664 94.6133 39.3633C94.6263 38.4388 94.6328 37.6055 94.6328 36.8633C94.6458 36.1081 94.6523 35.444 94.6523 34.8711C94.6523 34.7799 94.6198 34.7344 94.5547 34.7344H90.8047C90.7266 34.7344 90.6875 34.7734 90.6875 34.8516V39.3633C90.6875 39.7409 90.7005 40.0729 90.7266 40.3594C90.7526 40.6458 90.7917 40.8932 90.8438 41.1016C90.8698 41.1536 90.9544 41.2122 91.0977 41.2773C91.2409 41.3424 91.3971 41.3945 91.5664 41.4336C91.7357 41.4727 91.8594 41.4922 91.9375 41.4922C91.9766 41.4922 92.0026 41.5703 92.0156 41.7266C92.0286 41.8828 92.0221 41.9935 91.9961 42.0586L89.9062 41.9609L87.8555 42.0586ZM90.7852 33.8164H94.5547C94.6198 33.8164 94.6523 33.7773 94.6523 33.6992V33.6211C94.6523 32.8789 94.7305 32.2474 94.8867 31.7266C94.9128 31.6224 94.9193 31.4922 94.9062 31.3359C94.8932 31.1797 94.8411 31.0234 94.75 30.8672C94.6458 30.6849 94.5091 30.4831 94.3398 30.2617C94.1706 30.0404 93.9427 29.8516 93.6562 29.6953C93.3828 29.5391 93.0378 29.4609 92.6211 29.4609C92.0091 29.4609 91.5339 29.7734 91.1953 30.3984C90.8568 31.0234 90.6875 31.7982 90.6875 32.7227V33.7188C90.6875 33.7839 90.7201 33.8164 90.7852 33.8164ZM108.09 42.1172C107.374 42.1172 106.716 41.9284 106.117 41.5508C105.518 41.1732 105.036 40.6719 104.672 40.0469C104.32 39.4089 104.145 38.6992 104.145 37.918C104.145 37.1107 104.288 36.375 104.574 35.7109C104.874 35.0339 105.303 34.4935 105.863 34.0898C106.436 33.6862 107.126 33.4844 107.934 33.4844C109.366 33.4844 110.355 33.8164 110.902 34.4805C110.902 35.3529 110.661 35.7891 110.18 35.7891C109.958 35.7891 109.789 35.7435 109.672 35.6523C109.555 35.5482 109.405 35.3659 109.223 35.1055C108.819 34.5065 108.337 34.207 107.777 34.207C107.243 34.207 106.755 34.4609 106.312 34.9688C105.883 35.4766 105.668 36.2318 105.668 37.2344C105.668 38.276 105.922 39.1419 106.43 39.832C106.951 40.5221 107.667 40.8672 108.578 40.8672C109.125 40.8672 109.581 40.7891 109.945 40.6328C110.323 40.4635 110.596 40.3138 110.766 40.1836L110.902 40.0859C110.98 40.0859 111.02 40.1706 111.02 40.3398C111.02 40.431 110.98 40.5482 110.902 40.6914C110.642 41.056 110.258 41.388 109.75 41.6875C109.242 41.974 108.689 42.1172 108.09 42.1172ZM112.035 42.0586C111.983 42.0065 111.957 41.8958 111.957 41.7266C111.957 41.5703 111.983 41.4922 112.035 41.4922C112.139 41.4922 112.283 41.4727 112.465 41.4336C112.647 41.3945 112.816 41.3424 112.973 41.2773C113.129 41.2122 113.214 41.1536 113.227 41.1016C113.279 40.9193 113.311 40.7109 113.324 40.4766C113.35 40.2422 113.363 39.9948 113.363 39.7344V36.043C113.363 35.5482 113.272 35.1966 113.09 34.9883C112.96 34.819 112.803 34.7148 112.621 34.6758C112.439 34.6237 112.283 34.5977 112.152 34.5977C112.022 34.5846 111.957 34.5651 111.957 34.5391C111.957 34.2266 111.996 34.0638 112.074 34.0508C112.764 33.9466 113.292 33.862 113.656 33.7969C114.021 33.7188 114.346 33.6471 114.633 33.582L114.867 33.5234C114.919 33.5104 114.952 33.5625 114.965 33.6797C114.978 33.7969 114.978 33.8815 114.965 33.9336C114.939 34.194 114.913 34.4414 114.887 34.6758C114.874 34.9102 114.867 35.1315 114.867 35.3398V39.3633C114.867 39.7409 114.88 40.0729 114.906 40.3594C114.932 40.6458 114.971 40.8932 115.023 41.1016C115.049 41.1536 115.141 41.2122 115.297 41.2773C115.453 41.3424 115.622 41.3945 115.805 41.4336C115.987 41.4727 116.117 41.4922 116.195 41.4922C116.234 41.4922 116.26 41.5703 116.273 41.7266C116.286 41.8828 116.28 41.9935 116.254 42.0586L114.164 41.9609L112.035 42.0586ZM113.969 31.3945C113.708 31.3945 113.48 31.2969 113.285 31.1016C113.09 30.9062 112.992 30.6784 112.992 30.418C112.992 30.1445 113.09 29.9167 113.285 29.7344C113.48 29.5391 113.708 29.4414 113.969 29.4414C114.242 29.4414 114.47 29.5391 114.652 29.7344C114.848 29.9167 114.945 30.1445 114.945 30.418C114.945 30.6784 114.848 30.9062 114.652 31.1016C114.47 31.2969 114.242 31.3945 113.969 31.3945ZM121.508 42.1172C120.792 42.1172 120.134 41.9284 119.535 41.5508C118.936 41.1732 118.454 40.6719 118.09 40.0469C117.738 39.4089 117.562 38.6992 117.562 37.918C117.562 37.0065 117.732 36.2188 118.07 35.5547C118.409 34.8906 118.871 34.3828 119.457 34.0312C120.043 33.6667 120.701 33.4844 121.43 33.4844C122.029 33.4844 122.556 33.6016 123.012 33.8359C123.467 34.0573 123.819 34.3438 124.066 34.6953C124.301 35.0599 124.47 35.431 124.574 35.8086C124.691 36.1732 124.75 36.5378 124.75 36.9023C124.75 37.1628 124.711 37.3255 124.633 37.3906C124.555 37.4427 124.405 37.4688 124.184 37.4688H119.262C119.158 37.4688 119.105 37.5013 119.105 37.5664C119.105 38.1133 119.216 38.6406 119.438 39.1484C119.659 39.6432 119.984 40.0534 120.414 40.3789C120.844 40.7044 121.371 40.8672 121.996 40.8672C122.543 40.8672 122.999 40.7891 123.363 40.6328C123.741 40.4635 124.014 40.3138 124.184 40.1836L124.32 40.0859C124.398 40.0859 124.438 40.1706 124.438 40.3398C124.438 40.431 124.398 40.5482 124.32 40.6914C124.06 41.056 123.676 41.388 123.168 41.6875C122.66 41.974 122.107 42.1172 121.508 42.1172ZM119.262 36.6484H123.07C123.135 36.6484 123.168 36.5833 123.168 36.4531C123.168 36.1667 123.09 35.8542 122.934 35.5156C122.79 35.1641 122.569 34.8581 122.27 34.5977C121.97 34.3372 121.592 34.207 121.137 34.207C120.72 34.207 120.362 34.3503 120.062 34.6367C119.763 34.9102 119.535 35.2292 119.379 35.5938C119.223 35.9453 119.145 36.2513 119.145 36.5117C119.145 36.6029 119.184 36.6484 119.262 36.6484ZM125.883 42.0586C125.831 42.0065 125.805 41.8958 125.805 41.7266C125.805 41.5703 125.831 41.4922 125.883 41.4922C125.987 41.4922 126.13 41.4727 126.312 41.4336C126.495 41.3945 126.664 41.3424 126.82 41.2773C126.977 41.2122 127.061 41.1536 127.074 41.1016C127.126 40.9193 127.159 40.7109 127.172 40.4766C127.198 40.2422 127.211 39.9948 127.211 39.7344V36.043C127.211 35.5482 127.12 35.1966 126.938 34.9883C126.807 34.832 126.651 34.7279 126.469 34.6758C126.299 34.6237 126.143 34.5977 126 34.5977C125.87 34.5846 125.805 34.5651 125.805 34.5391C125.805 34.2266 125.844 34.0638 125.922 34.0508C126.612 33.9466 127.172 33.8555 127.602 33.7773C128.031 33.6862 128.298 33.6276 128.402 33.6016L128.715 33.5234C128.767 33.5104 128.799 33.5625 128.812 33.6797C128.826 33.7969 128.826 33.8815 128.812 33.9336C128.786 34.1159 128.767 34.2721 128.754 34.4023C128.741 34.5326 128.734 34.6367 128.734 34.7148C128.734 34.7669 128.747 34.793 128.773 34.793C128.786 34.793 128.806 34.7799 128.832 34.7539C129.132 34.4414 129.535 34.1484 130.043 33.875C130.564 33.5885 131.059 33.4453 131.527 33.4453C132.439 33.4453 133.077 33.7708 133.441 34.4219C133.806 35.0729 133.988 36.1276 133.988 37.5859V39.3633C133.988 39.7409 134.001 40.0729 134.027 40.3594C134.053 40.6458 134.092 40.8932 134.145 41.1016C134.171 41.1536 134.262 41.2122 134.418 41.2773C134.574 41.3424 134.743 41.3945 134.926 41.4336C135.108 41.4727 135.238 41.4922 135.316 41.4922C135.355 41.4922 135.382 41.5703 135.395 41.7266C135.408 41.8828 135.401 41.9935 135.375 42.0586L133.285 41.9609L131.234 42.0586C131.182 42.0065 131.156 41.8958 131.156 41.7266C131.156 41.5703 131.182 41.4922 131.234 41.4922C131.339 41.4922 131.475 41.4727 131.645 41.4336C131.814 41.3945 131.97 41.3424 132.113 41.2773C132.257 41.2122 132.335 41.1536 132.348 41.1016C132.4 40.9193 132.432 40.7109 132.445 40.4766C132.471 40.2422 132.484 39.9948 132.484 39.7344V37.7812C132.484 36.5703 132.328 35.7435 132.016 35.3008C131.703 34.8581 131.195 34.6367 130.492 34.6367C130.219 34.6367 129.945 34.7148 129.672 34.8711C129.398 35.0143 129.171 35.1836 128.988 35.3789C128.806 35.5742 128.715 35.7565 128.715 35.9258V39.3633C128.715 39.7409 128.728 40.0729 128.754 40.3594C128.78 40.6458 128.819 40.8932 128.871 41.1016C128.897 41.1536 128.988 41.2122 129.145 41.2773C129.301 41.3424 129.47 41.3945 129.652 41.4336C129.835 41.4727 129.965 41.4922 130.043 41.4922C130.082 41.4922 130.108 41.5703 130.121 41.7266C130.134 41.8828 130.128 41.9935 130.102 42.0586L128.012 41.9609L125.883 42.0586ZM139.691 42.1367C139.04 42.1367 138.493 41.9219 138.051 41.4922C137.621 41.0625 137.406 40.4505 137.406 39.6562V34.6953H136.273C136.208 34.6953 136.176 34.5586 136.176 34.2852C136.176 34.207 136.182 34.1615 136.195 34.1484C136.586 33.9661 136.996 33.6211 137.426 33.1133C137.725 32.7617 137.947 32.4557 138.09 32.1953C138.246 31.9349 138.324 31.7786 138.324 31.7266C138.715 31.7266 138.91 31.7591 138.91 31.8242V33.7578L140.453 33.7773H141.547C141.651 33.7773 141.703 33.8359 141.703 33.9531C141.703 34.2005 141.638 34.4479 141.508 34.6953H138.91V39.4805C138.91 40.0013 139.04 40.418 139.301 40.7305C139.574 41.043 139.926 41.1992 140.355 41.1992C140.759 41.1992 141.163 41.0755 141.566 40.8281C141.605 40.8021 141.664 40.8607 141.742 41.0039C141.82 41.1341 141.853 41.2057 141.84 41.2188C141.645 41.4271 141.345 41.6354 140.941 41.8438C140.538 42.0391 140.121 42.1367 139.691 42.1367ZM147.191 42.0586C147.152 42.0195 147.133 41.9219 147.133 41.7656C147.133 41.5833 147.152 41.4922 147.191 41.4922C147.309 41.4922 147.465 41.4727 147.66 41.4336C147.855 41.3815 148.038 41.3229 148.207 41.2578C148.389 41.1927 148.5 41.1211 148.539 41.043C148.63 40.8997 148.676 40.2878 148.676 39.207V31.8242C148.676 31.4466 148.663 31.1146 148.637 30.8281C148.624 30.5417 148.591 30.3138 148.539 30.1445C148.513 30.0664 148.409 29.9948 148.227 29.9297C148.057 29.8646 147.868 29.8125 147.66 29.7734C147.465 29.7344 147.309 29.7148 147.191 29.7148C147.139 29.7148 147.113 29.6367 147.113 29.4805C147.113 29.3112 147.139 29.2005 147.191 29.1484C147.53 29.1615 147.888 29.1745 148.266 29.1875C148.656 29.1875 149.073 29.1875 149.516 29.1875L151.41 29.168C151.788 29.168 152.1 29.168 152.348 29.168C152.595 29.1549 152.784 29.1484 152.914 29.1484C154.333 29.1484 155.544 29.4414 156.547 30.0273C157.549 30.6003 158.318 31.362 158.852 32.3125C159.385 33.263 159.652 34.3047 159.652 35.4375C159.652 36.6875 159.379 37.8203 158.832 38.8359C158.298 39.8516 157.523 40.6523 156.508 41.2383C155.505 41.8242 154.301 42.0977 152.895 42.0586L151.508 42.0195C151.117 42.0065 150.759 42 150.434 42C150.108 41.987 149.815 41.987 149.555 42L147.191 42.0586ZM153.207 41.1602C156.202 41.1602 157.699 39.2266 157.699 35.3594C157.699 34.3698 157.523 33.4714 157.172 32.6641C156.82 31.8568 156.299 31.2122 155.609 30.7305C154.932 30.2487 154.086 30.0078 153.07 30.0078H152.973C151.566 30.0078 150.785 30.112 150.629 30.3203C150.46 30.5417 150.375 30.9518 150.375 31.5508V39.2852C150.375 39.819 150.473 40.3138 150.668 40.7695C150.694 40.8346 150.805 40.8932 151 40.9453C151.195 40.9844 151.43 41.0234 151.703 41.0625C151.99 41.0885 152.27 41.1146 152.543 41.1406C152.816 41.1536 153.038 41.1602 153.207 41.1602ZM163.383 42.1367C162.784 42.1367 162.289 41.9805 161.898 41.668C161.508 41.3424 161.312 40.8607 161.312 40.2227C161.312 39.4414 161.82 38.7904 162.836 38.2695C163.279 38.0482 163.715 37.8724 164.145 37.7422C164.587 37.612 165.03 37.4622 165.473 37.293C165.59 37.2539 165.648 37.1562 165.648 37V35.5352C165.648 35.1185 165.518 34.7995 165.258 34.5781C164.997 34.3438 164.685 34.2266 164.32 34.2266C163.93 34.2266 163.604 34.3633 163.344 34.6367C163.083 34.8971 162.953 35.2422 162.953 35.6719C162.953 36.1276 162.686 36.3555 162.152 36.3555C161.775 36.3555 161.521 36.2318 161.391 35.9844C161.391 35.7109 161.501 35.431 161.723 35.1445C161.957 34.8451 162.257 34.5716 162.621 34.3242C162.986 34.0768 163.383 33.875 163.812 33.7188C164.255 33.5625 164.691 33.4844 165.121 33.4844C165.837 33.4844 166.352 33.6602 166.664 34.0117C166.977 34.3503 167.133 34.9036 167.133 35.6719V40.1836C167.133 40.457 167.204 40.6849 167.348 40.8672C167.491 41.0495 167.686 41.1406 167.934 41.1406C168.103 41.1406 168.331 41.0495 168.617 40.8672C168.669 40.8672 168.695 40.9193 168.695 41.0234C168.695 41.1927 168.663 41.3294 168.598 41.4336C168.064 41.8893 167.608 42.1172 167.23 42.1172C166.931 42.1172 166.645 41.9935 166.371 41.7461C166.098 41.4987 165.909 41.2383 165.805 40.9648C165.74 41.0169 165.655 41.0885 165.551 41.1797C165.46 41.2578 165.382 41.3229 165.316 41.375C165.043 41.5833 164.743 41.7656 164.418 41.9219C164.105 42.0651 163.76 42.1367 163.383 42.1367ZM164.125 41.0234C164.49 41.0234 164.835 40.9193 165.16 40.7109C165.486 40.5026 165.648 40.2812 165.648 40.0469V38.0352C165.31 38.1654 164.984 38.2826 164.672 38.3867C164.372 38.4909 164.132 38.5755 163.949 38.6406C163.715 38.7318 163.487 38.8945 163.266 39.1289C163.057 39.3633 162.953 39.6302 162.953 39.9297C162.953 40.3203 163.07 40.6003 163.305 40.7695C163.552 40.9388 163.826 41.0234 164.125 41.0234ZM172.66 42.1367C172.009 42.1367 171.462 41.9219 171.02 41.4922C170.59 41.0625 170.375 40.4505 170.375 39.6562V34.6953H169.242C169.177 34.6953 169.145 34.5586 169.145 34.2852C169.145 34.207 169.151 34.1615 169.164 34.1484C169.555 33.9661 169.965 33.6211 170.395 33.1133C170.694 32.7617 170.915 32.4557 171.059 32.1953C171.215 31.9349 171.293 31.7786 171.293 31.7266C171.684 31.7266 171.879 31.7591 171.879 31.8242V33.7578L173.422 33.7773H174.516C174.62 33.7773 174.672 33.8359 174.672 33.9531C174.672 34.2005 174.607 34.4479 174.477 34.6953H171.879V39.4805C171.879 40.0013 172.009 40.418 172.27 40.7305C172.543 41.043 172.895 41.1992 173.324 41.1992C173.728 41.1992 174.132 41.0755 174.535 40.8281C174.574 40.8021 174.633 40.8607 174.711 41.0039C174.789 41.1341 174.822 41.2057 174.809 41.2188C174.613 41.4271 174.314 41.6354 173.91 41.8438C173.507 42.0391 173.09 42.1367 172.66 42.1367ZM177.777 42.1367C177.178 42.1367 176.684 41.9805 176.293 41.668C175.902 41.3424 175.707 40.8607 175.707 40.2227C175.707 39.4414 176.215 38.7904 177.23 38.2695C177.673 38.0482 178.109 37.8724 178.539 37.7422C178.982 37.612 179.424 37.4622 179.867 37.293C179.984 37.2539 180.043 37.1562 180.043 37V35.5352C180.043 35.1185 179.913 34.7995 179.652 34.5781C179.392 34.3438 179.079 34.2266 178.715 34.2266C178.324 34.2266 177.999 34.3633 177.738 34.6367C177.478 34.8971 177.348 35.2422 177.348 35.6719C177.348 36.1276 177.081 36.3555 176.547 36.3555C176.169 36.3555 175.915 36.2318 175.785 35.9844C175.785 35.7109 175.896 35.431 176.117 35.1445C176.352 34.8451 176.651 34.5716 177.016 34.3242C177.38 34.0768 177.777 33.875 178.207 33.7188C178.65 33.5625 179.086 33.4844 179.516 33.4844C180.232 33.4844 180.746 33.6602 181.059 34.0117C181.371 34.3503 181.527 34.9036 181.527 35.6719V40.1836C181.527 40.457 181.599 40.6849 181.742 40.8672C181.885 41.0495 182.081 41.1406 182.328 41.1406C182.497 41.1406 182.725 41.0495 183.012 40.8672C183.064 40.8672 183.09 40.9193 183.09 41.0234C183.09 41.1927 183.057 41.3294 182.992 41.4336C182.458 41.8893 182.003 42.1172 181.625 42.1172C181.326 42.1172 181.039 41.9935 180.766 41.7461C180.492 41.4987 180.303 41.2383 180.199 40.9648C180.134 41.0169 180.049 41.0885 179.945 41.1797C179.854 41.2578 179.776 41.3229 179.711 41.375C179.438 41.5833 179.138 41.7656 178.812 41.9219C178.5 42.0651 178.155 42.1367 177.777 42.1367ZM178.52 41.0234C178.884 41.0234 179.229 40.9193 179.555 40.7109C179.88 40.5026 180.043 40.2812 180.043 40.0469V38.0352C179.704 38.1654 179.379 38.2826 179.066 38.3867C178.767 38.4909 178.526 38.5755 178.344 38.6406C178.109 38.7318 177.882 38.8945 177.66 39.1289C177.452 39.3633 177.348 39.6302 177.348 39.9297C177.348 40.3203 177.465 40.6003 177.699 40.7695C177.947 40.9388 178.22 41.0234 178.52 41.0234ZM188.285 42.0586C188.22 41.9935 188.188 41.8958 188.188 41.7656C188.188 41.5833 188.22 41.4922 188.285 41.4922C188.415 41.4922 188.585 41.4727 188.793 41.4336C189.001 41.3945 189.203 41.3424 189.398 41.2773C189.594 41.2122 189.73 41.1406 189.809 41.0625C190.03 40.8281 190.147 40.2617 190.16 39.3633C190.186 37.8529 190.212 36.4987 190.238 35.3008C190.277 34.0898 190.31 33.1003 190.336 32.332C190.362 31.5508 190.375 31.0495 190.375 30.8281C190.375 30.4766 190.349 30.2161 190.297 30.0469C190.271 29.9688 190.154 29.9036 189.945 29.8516C189.75 29.7865 189.535 29.7344 189.301 29.6953C189.066 29.6562 188.884 29.6367 188.754 29.6367C188.702 29.6367 188.676 29.5456 188.676 29.3633C188.676 29.2201 188.702 29.1224 188.754 29.0703C189.066 29.0833 189.411 29.1029 189.789 29.1289C190.167 29.1549 190.551 29.168 190.941 29.168C191.189 29.168 191.456 29.1615 191.742 29.1484C192.042 29.1224 192.374 29.0964 192.738 29.0703C192.842 29.3568 194.132 32.6185 196.605 38.8555C196.632 38.8815 196.658 38.8945 196.684 38.8945C196.736 38.8945 196.768 38.8685 196.781 38.8164C197.419 37.319 197.992 35.9518 198.5 34.7148C199.008 33.4779 199.451 32.3776 199.828 31.4141L200.609 29.0703C201.026 29.0964 201.365 29.1159 201.625 29.1289C201.898 29.1419 202.1 29.1484 202.23 29.1484C202.634 29.1484 203.018 29.1419 203.383 29.1289C203.747 29.1159 204.092 29.0964 204.418 29.0703C204.457 29.1875 204.477 29.2852 204.477 29.3633C204.477 29.5456 204.444 29.6367 204.379 29.6367H204.34C204.197 29.6367 204.008 29.6823 203.773 29.7734C203.539 29.8516 203.363 29.9362 203.246 30.0273C203.09 30.1445 203.012 30.5807 203.012 31.3359L203.188 39.2656C203.214 40.0208 203.311 40.6198 203.48 41.0625C203.52 41.1406 203.624 41.2122 203.793 41.2773C203.962 41.3424 204.145 41.3945 204.34 41.4336C204.548 41.4727 204.698 41.4922 204.789 41.4922C204.841 41.4922 204.867 41.5833 204.867 41.7656C204.867 41.8568 204.854 41.9544 204.828 42.0586C204.177 42.0326 203.656 42.013 203.266 42C202.888 41.974 202.634 41.9609 202.504 41.9609L200.16 42.0586C200.108 42.0065 200.082 41.9023 200.082 41.7461C200.082 41.5768 200.108 41.4922 200.16 41.4922C200.29 41.4922 200.486 41.4596 200.746 41.3945C201.02 41.3294 201.215 41.2643 201.332 41.1992C201.488 41.0951 201.566 40.8151 201.566 40.3594V39.3242L201.332 32.4492C201.332 32.306 201.312 32.1497 201.273 31.9805C201.247 31.7982 201.215 31.6419 201.176 31.5117C201.137 31.3685 201.091 31.2969 201.039 31.2969C201.013 31.2969 200.98 31.3424 200.941 31.4336L196.859 41.1992C196.612 41.7591 196.371 42.0391 196.137 42.0391C196.124 42.0391 196.065 42.026 195.961 42L191.488 30.6328C191.449 32.4688 191.404 34.1094 191.352 35.5547C191.299 36.987 191.254 38.1393 191.215 39.0117C191.189 39.8841 191.176 40.3919 191.176 40.5352C191.176 40.7695 191.215 40.9388 191.293 41.043C191.345 41.1081 191.475 41.1797 191.684 41.2578C191.892 41.3229 192.107 41.3815 192.328 41.4336C192.562 41.4727 192.719 41.4922 192.797 41.4922C192.849 41.4922 192.875 41.5898 192.875 41.7852C192.875 41.8633 192.862 41.9544 192.836 42.0586C192.185 42.0326 191.671 42.013 191.293 42C190.915 41.974 190.674 41.9609 190.57 41.9609L188.285 42.0586ZM208.285 42.1367C207.686 42.1367 207.191 41.9805 206.801 41.668C206.41 41.3424 206.215 40.8607 206.215 40.2227C206.215 39.4414 206.723 38.7904 207.738 38.2695C208.181 38.0482 208.617 37.8724 209.047 37.7422C209.49 37.612 209.932 37.4622 210.375 37.293C210.492 37.2539 210.551 37.1562 210.551 37V35.5352C210.551 35.1185 210.421 34.7995 210.16 34.5781C209.9 34.3438 209.587 34.2266 209.223 34.2266C208.832 34.2266 208.507 34.3633 208.246 34.6367C207.986 34.8971 207.855 35.2422 207.855 35.6719C207.855 36.1276 207.589 36.3555 207.055 36.3555C206.677 36.3555 206.423 36.2318 206.293 35.9844C206.293 35.7109 206.404 35.431 206.625 35.1445C206.859 34.8451 207.159 34.5716 207.523 34.3242C207.888 34.0768 208.285 33.875 208.715 33.7188C209.158 33.5625 209.594 33.4844 210.023 33.4844C210.74 33.4844 211.254 33.6602 211.566 34.0117C211.879 34.3503 212.035 34.9036 212.035 35.6719V40.1836C212.035 40.457 212.107 40.6849 212.25 40.8672C212.393 41.0495 212.589 41.1406 212.836 41.1406C213.005 41.1406 213.233 41.0495 213.52 40.8672C213.572 40.8672 213.598 40.9193 213.598 41.0234C213.598 41.1927 213.565 41.3294 213.5 41.4336C212.966 41.8893 212.51 42.1172 212.133 42.1172C211.833 42.1172 211.547 41.9935 211.273 41.7461C211 41.4987 210.811 41.2383 210.707 40.9648C210.642 41.0169 210.557 41.0885 210.453 41.1797C210.362 41.2578 210.284 41.3229 210.219 41.375C209.945 41.5833 209.646 41.7656 209.32 41.9219C209.008 42.0651 208.663 42.1367 208.285 42.1367ZM209.027 41.0234C209.392 41.0234 209.737 40.9193 210.062 40.7109C210.388 40.5026 210.551 40.2812 210.551 40.0469V38.0352C210.212 38.1654 209.887 38.2826 209.574 38.3867C209.275 38.4909 209.034 38.5755 208.852 38.6406C208.617 38.7318 208.389 38.8945 208.168 39.1289C207.96 39.3633 207.855 39.6302 207.855 39.9297C207.855 40.3203 207.973 40.6003 208.207 40.7695C208.454 40.9388 208.728 41.0234 209.027 41.0234ZM214.359 42.0586C214.307 42.0065 214.281 41.8958 214.281 41.7266C214.281 41.5703 214.307 41.4922 214.359 41.4922C214.464 41.4922 214.607 41.4727 214.789 41.4336C214.971 41.3945 215.141 41.3424 215.297 41.2773C215.453 41.2122 215.538 41.1536 215.551 41.1016C215.603 40.9193 215.635 40.7109 215.648 40.4766C215.674 40.2422 215.688 39.9948 215.688 39.7344V36.043C215.688 35.5482 215.596 35.1966 215.414 34.9883C215.284 34.832 215.128 34.7279 214.945 34.6758C214.776 34.6237 214.62 34.5977 214.477 34.5977C214.346 34.5846 214.281 34.5651 214.281 34.5391C214.281 34.2266 214.32 34.0638 214.398 34.0508C215.089 33.9466 215.648 33.8555 216.078 33.7773C216.508 33.6862 216.775 33.6276 216.879 33.6016L217.191 33.5234C217.243 33.5104 217.276 33.5625 217.289 33.6797C217.302 33.7969 217.302 33.8815 217.289 33.9336C217.263 34.1159 217.243 34.2721 217.23 34.4023C217.217 34.5326 217.211 34.6367 217.211 34.7148C217.211 34.7669 217.224 34.793 217.25 34.793C217.263 34.793 217.283 34.7799 217.309 34.7539C217.608 34.4414 218.012 34.1484 218.52 33.875C219.04 33.5885 219.535 33.4453 220.004 33.4453C220.915 33.4453 221.553 33.7708 221.918 34.4219C222.283 35.0729 222.465 36.1276 222.465 37.5859V39.3633C222.465 39.7409 222.478 40.0729 222.504 40.3594C222.53 40.6458 222.569 40.8932 222.621 41.1016C222.647 41.1536 222.738 41.2122 222.895 41.2773C223.051 41.3424 223.22 41.3945 223.402 41.4336C223.585 41.4727 223.715 41.4922 223.793 41.4922C223.832 41.4922 223.858 41.5703 223.871 41.7266C223.884 41.8828 223.878 41.9935 223.852 42.0586L221.762 41.9609L219.711 42.0586C219.659 42.0065 219.633 41.8958 219.633 41.7266C219.633 41.5703 219.659 41.4922 219.711 41.4922C219.815 41.4922 219.952 41.4727 220.121 41.4336C220.29 41.3945 220.447 41.3424 220.59 41.2773C220.733 41.2122 220.811 41.1536 220.824 41.1016C220.876 40.9193 220.909 40.7109 220.922 40.4766C220.948 40.2422 220.961 39.9948 220.961 39.7344V37.7812C220.961 36.5703 220.805 35.7435 220.492 35.3008C220.18 34.8581 219.672 34.6367 218.969 34.6367C218.695 34.6367 218.422 34.7148 218.148 34.8711C217.875 35.0143 217.647 35.1836 217.465 35.3789C217.283 35.5742 217.191 35.7565 217.191 35.9258V39.3633C217.191 39.7409 217.204 40.0729 217.23 40.3594C217.257 40.6458 217.296 40.8932 217.348 41.1016C217.374 41.1536 217.465 41.2122 217.621 41.2773C217.777 41.3424 217.947 41.3945 218.129 41.4336C218.311 41.4727 218.441 41.4922 218.52 41.4922C218.559 41.4922 218.585 41.5703 218.598 41.7266C218.611 41.8828 218.604 41.9935 218.578 42.0586L216.488 41.9609L214.359 42.0586ZM227.152 42.1367C226.553 42.1367 226.059 41.9805 225.668 41.668C225.277 41.3424 225.082 40.8607 225.082 40.2227C225.082 39.4414 225.59 38.7904 226.605 38.2695C227.048 38.0482 227.484 37.8724 227.914 37.7422C228.357 37.612 228.799 37.4622 229.242 37.293C229.359 37.2539 229.418 37.1562 229.418 37V35.5352C229.418 35.1185 229.288 34.7995 229.027 34.5781C228.767 34.3438 228.454 34.2266 228.09 34.2266C227.699 34.2266 227.374 34.3633 227.113 34.6367C226.853 34.8971 226.723 35.2422 226.723 35.6719C226.723 36.1276 226.456 36.3555 225.922 36.3555C225.544 36.3555 225.29 36.2318 225.16 35.9844C225.16 35.7109 225.271 35.431 225.492 35.1445C225.727 34.8451 226.026 34.5716 226.391 34.3242C226.755 34.0768 227.152 33.875 227.582 33.7188C228.025 33.5625 228.461 33.4844 228.891 33.4844C229.607 33.4844 230.121 33.6602 230.434 34.0117C230.746 34.3503 230.902 34.9036 230.902 35.6719V40.1836C230.902 40.457 230.974 40.6849 231.117 40.8672C231.26 41.0495 231.456 41.1406 231.703 41.1406C231.872 41.1406 232.1 41.0495 232.387 40.8672C232.439 40.8672 232.465 40.9193 232.465 41.0234C232.465 41.1927 232.432 41.3294 232.367 41.4336C231.833 41.8893 231.378 42.1172 231 42.1172C230.701 42.1172 230.414 41.9935 230.141 41.7461C229.867 41.4987 229.678 41.2383 229.574 40.9648C229.509 41.0169 229.424 41.0885 229.32 41.1797C229.229 41.2578 229.151 41.3229 229.086 41.375C228.812 41.5833 228.513 41.7656 228.188 41.9219C227.875 42.0651 227.53 42.1367 227.152 42.1367ZM227.895 41.0234C228.259 41.0234 228.604 40.9193 228.93 40.7109C229.255 40.5026 229.418 40.2812 229.418 40.0469V38.0352C229.079 38.1654 228.754 38.2826 228.441 38.3867C228.142 38.4909 227.901 38.5755 227.719 38.6406C227.484 38.7318 227.257 38.8945 227.035 39.1289C226.827 39.3633 226.723 39.6302 226.723 39.9297C226.723 40.3203 226.84 40.6003 227.074 40.7695C227.322 40.9388 227.595 41.0234 227.895 41.0234ZM236.742 46.4336C236.13 46.4336 235.544 46.3555 234.984 46.1992C234.438 46.043 233.995 45.8021 233.656 45.4766C233.318 45.151 233.148 44.7474 233.148 44.2656C233.148 43.4583 233.786 42.7682 235.062 42.1953C234.711 42.1432 234.385 41.9805 234.086 41.707C233.786 41.4336 233.637 41.1016 233.637 40.7109C233.637 40.3724 233.78 40.0208 234.066 39.6562C234.366 39.2917 234.698 38.9922 235.062 38.7578C234.802 38.6536 234.548 38.4779 234.301 38.2305C234.066 37.9831 233.871 37.6901 233.715 37.3516C233.559 37.013 233.48 36.6615 233.48 36.2969C233.48 35.776 233.63 35.3138 233.93 34.9102C234.229 34.4935 234.626 34.168 235.121 33.9336C235.629 33.6862 236.195 33.5625 236.82 33.5625C237.328 33.5625 237.882 33.6471 238.48 33.8164C239.079 33.9857 239.594 34.0703 240.023 34.0703H241.156C241.234 34.0833 241.273 34.2461 241.273 34.5586C241.273 34.7409 241.234 34.832 241.156 34.832H239.77C239.717 34.832 239.691 34.8516 239.691 34.8906L239.887 35.3594C240.03 35.6849 240.102 35.9974 240.102 36.2969C240.102 36.7656 239.958 37.2083 239.672 37.625C239.385 38.0417 238.995 38.3802 238.5 38.6406C238.018 38.901 237.471 39.0312 236.859 39.0312C236.651 39.0312 236.456 39.0247 236.273 39.0117C236.091 38.9987 235.922 38.9792 235.766 38.9531C235.518 39.1354 235.316 39.3242 235.16 39.5195C235.017 39.7148 234.945 39.9102 234.945 40.1055C234.945 40.431 235.128 40.6393 235.492 40.7305C235.857 40.8216 236.326 40.8672 236.898 40.8672C237.706 40.8802 238.389 40.9323 238.949 41.0234C239.522 41.1016 239.971 41.2122 240.297 41.3555C240.948 41.668 241.273 42.1302 241.273 42.7422C241.273 43.4062 241.078 44.0182 240.688 44.5781C240.31 45.138 239.776 45.5807 239.086 45.9062C238.409 46.2448 237.628 46.4206 236.742 46.4336ZM236.84 38.3672C237.348 38.3672 237.764 38.1719 238.09 37.7812C238.428 37.3906 238.598 36.9219 238.598 36.375C238.598 35.776 238.409 35.2682 238.031 34.8516C237.667 34.4349 237.237 34.2266 236.742 34.2266C236.234 34.2266 235.811 34.4219 235.473 34.8125C235.147 35.2031 234.984 35.6719 234.984 36.2188C234.984 36.8177 235.167 37.3255 235.531 37.7422C235.909 38.1589 236.345 38.3672 236.84 38.3672ZM237.309 45.7109C237.829 45.7109 238.292 45.6133 238.695 45.418C239.099 45.2227 239.411 44.9688 239.633 44.6562C239.867 44.3438 239.984 44.0117 239.984 43.6602C239.984 43.1133 239.717 42.7487 239.184 42.5664C238.663 42.3711 237.628 42.2734 236.078 42.2734C235.974 42.2734 235.792 42.332 235.531 42.4492C235.284 42.5664 235.049 42.7357 234.828 42.957C234.62 43.1914 234.516 43.4844 234.516 43.8359C234.516 44.2005 234.652 44.526 234.926 44.8125C235.199 45.099 235.544 45.3203 235.961 45.4766C236.391 45.6328 236.84 45.7109 237.309 45.7109ZM246.508 42.1172C245.792 42.1172 245.134 41.9284 244.535 41.5508C243.936 41.1732 243.454 40.6719 243.09 40.0469C242.738 39.4089 242.562 38.6992 242.562 37.918C242.562 37.0065 242.732 36.2188 243.07 35.5547C243.409 34.8906 243.871 34.3828 244.457 34.0312C245.043 33.6667 245.701 33.4844 246.43 33.4844C247.029 33.4844 247.556 33.6016 248.012 33.8359C248.467 34.0573 248.819 34.3438 249.066 34.6953C249.301 35.0599 249.47 35.431 249.574 35.8086C249.691 36.1732 249.75 36.5378 249.75 36.9023C249.75 37.1628 249.711 37.3255 249.633 37.3906C249.555 37.4427 249.405 37.4688 249.184 37.4688H244.262C244.158 37.4688 244.105 37.5013 244.105 37.5664C244.105 38.1133 244.216 38.6406 244.438 39.1484C244.659 39.6432 244.984 40.0534 245.414 40.3789C245.844 40.7044 246.371 40.8672 246.996 40.8672C247.543 40.8672 247.999 40.7891 248.363 40.6328C248.741 40.4635 249.014 40.3138 249.184 40.1836L249.32 40.0859C249.398 40.0859 249.438 40.1706 249.438 40.3398C249.438 40.431 249.398 40.5482 249.32 40.6914C249.06 41.056 248.676 41.388 248.168 41.6875C247.66 41.974 247.107 42.1172 246.508 42.1172ZM244.262 36.6484H248.07C248.135 36.6484 248.168 36.5833 248.168 36.4531C248.168 36.1667 248.09 35.8542 247.934 35.5156C247.79 35.1641 247.569 34.8581 247.27 34.5977C246.97 34.3372 246.592 34.207 246.137 34.207C245.72 34.207 245.362 34.3503 245.062 34.6367C244.763 34.9102 244.535 35.2292 244.379 35.5938C244.223 35.9453 244.145 36.2513 244.145 36.5117C244.145 36.6029 244.184 36.6484 244.262 36.6484ZM250.844 42.0586C250.792 42.0065 250.766 41.8958 250.766 41.7266C250.766 41.5703 250.792 41.4922 250.844 41.4922C250.948 41.4922 251.091 41.4727 251.273 41.4336C251.456 41.3945 251.625 41.3424 251.781 41.2773C251.938 41.2122 252.022 41.1536 252.035 41.1016C252.087 40.9193 252.12 40.7109 252.133 40.4766C252.159 40.2422 252.172 39.9948 252.172 39.7344V36.043C252.172 35.5482 252.081 35.1966 251.898 34.9883C251.768 34.832 251.612 34.7279 251.43 34.6758C251.26 34.6237 251.104 34.5977 250.961 34.5977C250.831 34.5846 250.766 34.5651 250.766 34.5391C250.766 34.2266 250.805 34.0638 250.883 34.0508C251.573 33.9466 252.113 33.8555 252.504 33.7773C252.908 33.6992 253.214 33.6341 253.422 33.582L253.676 33.5234C253.728 33.5104 253.76 33.5625 253.773 33.6797C253.786 33.7839 253.786 33.8685 253.773 33.9336C253.747 34.1159 253.728 34.2721 253.715 34.4023C253.702 34.5326 253.695 34.6367 253.695 34.7148C253.695 34.7669 253.708 34.793 253.734 34.793C253.747 34.793 253.767 34.7799 253.793 34.7539C254.092 34.4414 254.496 34.1484 255.004 33.875C255.525 33.5885 256.02 33.4453 256.488 33.4453C257.009 33.4453 257.439 33.5885 257.777 33.875C258.129 34.1484 258.37 34.4674 258.5 34.832C259.49 33.9076 260.499 33.4453 261.527 33.4453C263.168 33.4453 263.988 34.6953 263.988 37.1953V39.3633C263.988 39.7409 264.001 40.0729 264.027 40.3594C264.053 40.6458 264.092 40.8932 264.145 41.1016C264.171 41.1536 264.262 41.2122 264.418 41.2773C264.574 41.3424 264.743 41.3945 264.926 41.4336C265.108 41.4727 265.238 41.4922 265.316 41.4922C265.355 41.4922 265.382 41.5703 265.395 41.7266C265.408 41.8828 265.401 41.9935 265.375 42.0586L263.285 41.9609L261.156 42.0586C261.104 42.0065 261.078 41.8958 261.078 41.7266C261.078 41.5703 261.104 41.4922 261.156 41.4922C261.26 41.4922 261.404 41.4727 261.586 41.4336C261.768 41.3945 261.938 41.3424 262.094 41.2773C262.25 41.2122 262.335 41.1536 262.348 41.1016C262.4 40.9193 262.432 40.724 262.445 40.5156C262.471 40.2943 262.484 40.0729 262.484 39.8516V37.6445C262.484 35.6393 261.827 34.6367 260.512 34.6367C260.199 34.6367 259.906 34.7083 259.633 34.8516C259.359 34.9818 259.138 35.1315 258.969 35.3008C258.812 35.4701 258.734 35.6198 258.734 35.75C258.773 35.9974 258.799 36.2513 258.812 36.5117C258.826 36.7591 258.832 37.0326 258.832 37.332V39.5391C258.832 39.8646 258.845 40.1576 258.871 40.418C258.897 40.6654 258.936 40.8932 258.988 41.1016C259.014 41.1536 259.105 41.2122 259.262 41.2773C259.418 41.3424 259.587 41.3945 259.77 41.4336C259.952 41.4727 260.082 41.4922 260.16 41.4922C260.199 41.4922 260.225 41.5703 260.238 41.7266C260.251 41.8828 260.245 41.9935 260.219 42.0586L258.129 41.9609L256 42.0586C255.948 42.0065 255.922 41.8958 255.922 41.7266C255.922 41.5703 255.948 41.4922 256 41.4922C256.104 41.4922 256.247 41.4727 256.43 41.4336C256.612 41.3945 256.781 41.3424 256.938 41.2773C257.094 41.2122 257.178 41.1536 257.191 41.1016C257.243 40.9193 257.276 40.7109 257.289 40.4766C257.315 40.2422 257.328 39.9948 257.328 39.7344V37.7422C257.328 35.6719 256.703 34.6367 255.453 34.6367C255.193 34.6367 254.926 34.7083 254.652 34.8516C254.379 34.9818 254.145 35.151 253.949 35.3594C253.767 35.5547 253.676 35.7435 253.676 35.9258V39.3633C253.676 39.7409 253.689 40.0729 253.715 40.3594C253.741 40.6458 253.78 40.8932 253.832 41.1016C253.858 41.1536 253.949 41.2122 254.105 41.2773C254.262 41.3424 254.431 41.3945 254.613 41.4336C254.796 41.4727 254.926 41.4922 255.004 41.4922C255.043 41.4922 255.069 41.5703 255.082 41.7266C255.095 41.8828 255.089 41.9935 255.062 42.0586L252.973 41.9609L250.844 42.0586ZM270.531 42.1172C269.815 42.1172 269.158 41.9284 268.559 41.5508C267.96 41.1732 267.478 40.6719 267.113 40.0469C266.762 39.4089 266.586 38.6992 266.586 37.918C266.586 37.0065 266.755 36.2188 267.094 35.5547C267.432 34.8906 267.895 34.3828 268.48 34.0312C269.066 33.6667 269.724 33.4844 270.453 33.4844C271.052 33.4844 271.579 33.6016 272.035 33.8359C272.491 34.0573 272.842 34.3438 273.09 34.6953C273.324 35.0599 273.493 35.431 273.598 35.8086C273.715 36.1732 273.773 36.5378 273.773 36.9023C273.773 37.1628 273.734 37.3255 273.656 37.3906C273.578 37.4427 273.428 37.4688 273.207 37.4688H268.285C268.181 37.4688 268.129 37.5013 268.129 37.5664C268.129 38.1133 268.24 38.6406 268.461 39.1484C268.682 39.6432 269.008 40.0534 269.438 40.3789C269.867 40.7044 270.395 40.8672 271.02 40.8672C271.566 40.8672 272.022 40.7891 272.387 40.6328C272.764 40.4635 273.038 40.3138 273.207 40.1836L273.344 40.0859C273.422 40.0859 273.461 40.1706 273.461 40.3398C273.461 40.431 273.422 40.5482 273.344 40.6914C273.083 41.056 272.699 41.388 272.191 41.6875C271.684 41.974 271.13 42.1172 270.531 42.1172ZM268.285 36.6484H272.094C272.159 36.6484 272.191 36.5833 272.191 36.4531C272.191 36.1667 272.113 35.8542 271.957 35.5156C271.814 35.1641 271.592 34.8581 271.293 34.5977C270.993 34.3372 270.616 34.207 270.16 34.207C269.743 34.207 269.385 34.3503 269.086 34.6367C268.786 34.9102 268.559 35.2292 268.402 35.5938C268.246 35.9453 268.168 36.2513 268.168 36.5117C268.168 36.6029 268.207 36.6484 268.285 36.6484ZM274.906 42.0586C274.854 42.0065 274.828 41.8958 274.828 41.7266C274.828 41.5703 274.854 41.4922 274.906 41.4922C275.01 41.4922 275.154 41.4727 275.336 41.4336C275.518 41.3945 275.688 41.3424 275.844 41.2773C276 41.2122 276.085 41.1536 276.098 41.1016C276.15 40.9193 276.182 40.7109 276.195 40.4766C276.221 40.2422 276.234 39.9948 276.234 39.7344V36.043C276.234 35.5482 276.143 35.1966 275.961 34.9883C275.831 34.832 275.674 34.7279 275.492 34.6758C275.323 34.6237 275.167 34.5977 275.023 34.5977C274.893 34.5846 274.828 34.5651 274.828 34.5391C274.828 34.2266 274.867 34.0638 274.945 34.0508C275.635 33.9466 276.195 33.8555 276.625 33.7773C277.055 33.6862 277.322 33.6276 277.426 33.6016L277.738 33.5234C277.79 33.5104 277.823 33.5625 277.836 33.6797C277.849 33.7969 277.849 33.8815 277.836 33.9336C277.81 34.1159 277.79 34.2721 277.777 34.4023C277.764 34.5326 277.758 34.6367 277.758 34.7148C277.758 34.7669 277.771 34.793 277.797 34.793C277.81 34.793 277.829 34.7799 277.855 34.7539C278.155 34.4414 278.559 34.1484 279.066 33.875C279.587 33.5885 280.082 33.4453 280.551 33.4453C281.462 33.4453 282.1 33.7708 282.465 34.4219C282.829 35.0729 283.012 36.1276 283.012 37.5859V39.3633C283.012 39.7409 283.025 40.0729 283.051 40.3594C283.077 40.6458 283.116 40.8932 283.168 41.1016C283.194 41.1536 283.285 41.2122 283.441 41.2773C283.598 41.3424 283.767 41.3945 283.949 41.4336C284.132 41.4727 284.262 41.4922 284.34 41.4922C284.379 41.4922 284.405 41.5703 284.418 41.7266C284.431 41.8828 284.424 41.9935 284.398 42.0586L282.309 41.9609L280.258 42.0586C280.206 42.0065 280.18 41.8958 280.18 41.7266C280.18 41.5703 280.206 41.4922 280.258 41.4922C280.362 41.4922 280.499 41.4727 280.668 41.4336C280.837 41.3945 280.993 41.3424 281.137 41.2773C281.28 41.2122 281.358 41.1536 281.371 41.1016C281.423 40.9193 281.456 40.7109 281.469 40.4766C281.495 40.2422 281.508 39.9948 281.508 39.7344V37.7812C281.508 36.5703 281.352 35.7435 281.039 35.3008C280.727 34.8581 280.219 34.6367 279.516 34.6367C279.242 34.6367 278.969 34.7148 278.695 34.8711C278.422 35.0143 278.194 35.1836 278.012 35.3789C277.829 35.5742 277.738 35.7565 277.738 35.9258V39.3633C277.738 39.7409 277.751 40.0729 277.777 40.3594C277.803 40.6458 277.842 40.8932 277.895 41.1016C277.921 41.1536 278.012 41.2122 278.168 41.2773C278.324 41.3424 278.493 41.3945 278.676 41.4336C278.858 41.4727 278.988 41.4922 279.066 41.4922C279.105 41.4922 279.132 41.5703 279.145 41.7266C279.158 41.8828 279.151 41.9935 279.125 42.0586L277.035 41.9609L274.906 42.0586ZM288.715 42.1367C288.064 42.1367 287.517 41.9219 287.074 41.4922C286.645 41.0625 286.43 40.4505 286.43 39.6562V34.6953H285.297C285.232 34.6953 285.199 34.5586 285.199 34.2852C285.199 34.207 285.206 34.1615 285.219 34.1484C285.609 33.9661 286.02 33.6211 286.449 33.1133C286.749 32.7617 286.97 32.4557 287.113 32.1953C287.27 31.9349 287.348 31.7786 287.348 31.7266C287.738 31.7266 287.934 31.7591 287.934 31.8242V33.7578L289.477 33.7773H290.57C290.674 33.7773 290.727 33.8359 290.727 33.9531C290.727 34.2005 290.661 34.4479 290.531 34.6953H287.934V39.4805C287.934 40.0013 288.064 40.418 288.324 40.7305C288.598 41.043 288.949 41.1992 289.379 41.1992C289.783 41.1992 290.186 41.0755 290.59 40.8281C290.629 40.8021 290.688 40.8607 290.766 41.0039C290.844 41.1341 290.876 41.2057 290.863 41.2188C290.668 41.4271 290.368 41.6354 289.965 41.8438C289.561 42.0391 289.145 42.1367 288.715 42.1367Z" fill="#717171"/>
</svg>
