<svg width="538" height="206" viewBox="0 0 538 206" fill="none" xmlns="http://www.w3.org/2000/svg">
<path d="M71.328 114.664L68.256 117.256V177.544L71.328 180.136V181H58.08V180.136L61.152 177.544V117.064L36.864 181H34.368L9.12 120.52V176.392L15.168 180.136V181H1.92V180.136L7.968 176.392V118.408L3.072 114.664V113.8H14.016L38.784 172.84L61.152 113.8H71.328V114.664ZM108.925 131.368H122.269V132.232L115.645 136.168L98.3648 181C93.0848 192.616 86.7488 205.864 68.5087 203.656L70.1408 196.648C86.2688 200.872 93.5648 188.488 96.2528 182.824L77.9168 135.496L72.9248 132.232V131.368H89.5328V132.232L85.4048 135.016L100.189 173.128L114.397 135.976L108.925 132.232V131.368ZM144.929 113.8C158.177 113.8 171.905 119.368 171.905 134.248C171.905 149.128 158.177 154.696 144.929 154.696H134.369V177.544L137.441 180.136V181H124.193V180.136L127.265 177.544V117.256L124.193 114.664V113.8H144.929ZM144.929 153.544C156.929 153.544 164.225 146.248 164.225 134.248C164.225 122.248 156.929 114.952 144.929 114.952H134.369V153.544H144.929ZM213.169 177.544L216.241 180.136V181H206.065V162.952C203.665 171.4 198.001 182.344 185.809 182.344C179.281 182.344 171.217 177.928 171.985 169.288C173.329 153.352 203.089 145.576 206.065 143.56C206.065 143.56 207.025 132.52 197.137 132.52C191.473 132.52 184.753 136.168 177.649 143.272L175.249 136.936C181.489 132.808 191.281 131.368 196.273 131.368C200.881 131.368 213.169 132.136 213.169 149.032V177.544ZM206.065 156.04V145C197.233 149.224 179.281 155.848 179.281 168.904C179.281 174.28 182.929 179.368 189.169 179.368C199.153 179.368 205.009 164.872 206.065 156.04ZM266.828 177.544L269.9 180.136V181H256.556V180.136L259.628 177.544V148.264C259.628 139.528 254.252 133.096 246.476 133.096C238.412 133.096 232.652 138.76 231.212 146.536V177.544L234.284 180.136V181H221.036V180.136L224.108 177.544V138.184L221.036 136.168V135.304L230.348 131.368H231.212V138.664C236.396 134.056 242.444 131.368 249.068 131.368C258.188 131.368 266.828 136.36 266.828 148.84V177.544ZM320.141 173.128L321.101 173.896C316.109 179.08 310.445 182.344 301.421 182.344C284.429 182.344 274.733 169.672 274.733 157.192C274.733 144.712 284.429 131.368 301.421 131.368C306.701 131.368 310.349 132.232 315.245 133.096L317.837 141.736H317.069C312.749 135.976 305.261 131.176 296.429 133.096C285.101 135.4 280.013 148.264 282.317 159.976C284.333 170.344 292.109 181.96 305.645 180.232C311.885 179.464 316.109 177.256 320.141 173.128ZM369.766 177.544L372.838 180.136V181H359.59V180.136L362.662 177.544V148.264C362.662 139.528 357.286 133.096 349.51 133.096C341.446 133.096 335.686 138.76 334.246 146.536V177.544L337.318 180.136V181H323.974V180.136L327.046 177.544V116.68L323.974 114.664V113.8L333.382 109.864H334.246V138.664C339.43 134.056 345.382 131.368 352.006 131.368C361.126 131.368 369.766 136.36 369.766 148.84V177.544ZM418.95 177.544L422.022 180.136V181H411.846V162.952C409.446 171.4 403.782 182.344 391.59 182.344C385.062 182.344 376.998 177.928 377.766 169.288C379.11 153.352 408.87 145.576 411.846 143.56C411.846 143.56 412.806 132.52 402.918 132.52C397.254 132.52 390.534 136.168 383.43 143.272L381.03 136.936C387.27 132.808 397.062 131.368 402.054 131.368C406.662 131.368 418.95 132.136 418.95 149.032V177.544ZM411.846 156.04V145C403.014 149.224 385.062 155.848 385.062 168.904C385.062 174.28 388.71 179.368 394.95 179.368C404.934 179.368 410.79 164.872 411.846 156.04ZM457.581 131.368H470.925V132.232L464.301 136.168L447.021 181C441.741 192.616 435.405 205.864 417.165 203.656L418.797 196.648C434.925 200.872 442.221 188.488 444.909 182.824L426.573 135.496L421.581 132.232V131.368H438.189V132.232L434.061 135.016L448.845 173.128L463.053 135.976L457.581 132.232V131.368ZM509.325 177.544L512.397 180.136V181H502.221V162.952C499.821 171.4 494.157 182.344 481.965 182.344C475.437 182.344 467.373 177.928 468.141 169.288C469.485 153.352 499.245 145.576 502.221 143.56C502.221 143.56 503.181 132.52 493.293 132.52C487.629 132.52 480.909 136.168 473.805 143.272L471.405 136.936C477.645 132.808 487.437 131.368 492.429 131.368C497.037 131.368 509.325 132.136 509.325 149.032V177.544ZM502.221 156.04V145C493.389 149.224 475.437 155.848 475.437 168.904C475.437 174.28 479.085 179.368 485.325 179.368C495.309 179.368 501.165 164.872 502.221 156.04ZM527.849 169.384C527.849 174.952 529.481 180.52 536.585 180.52V181.672C529.769 181.96 520.648 180.328 520.648 168.232V132.52H515.273V131.368L526.984 123.304H527.849V131.368H535.817V132.52H527.849V169.384Z" fill="black"/>
<path d="M211.316 70.124L208.796 71.6L200.732 92.624L201.632 95H198.752L193.604 81.644L189.356 92.624L190.292 95H187.412L178.268 71.348L176.36 70.124V69.8H182.624V70.124L181.04 71.168L189.14 92.012L193.352 81.032L189.608 71.348L187.7 70.124V69.8H193.964V70.124L192.416 71.168L200.48 92.012L208.364 71.528L206.312 70.124V69.8H211.316V70.124ZM224.756 92.048L225.116 92.336C223.244 94.244 221.12 95.504 217.736 95.504C211.364 95.504 207.728 90.752 207.728 86.036C207.728 81.356 211.364 76.388 217.736 76.388C221.012 76.388 224.504 78.116 224.504 81.356C224.504 85.604 216.764 88.484 211.976 90.824C212.12 91.076 212.228 91.292 212.408 91.472L212.696 91.868C214.352 93.92 216.44 95.072 219.32 94.712C221.66 94.388 223.244 93.56 224.756 92.048ZM215.864 77.036C211.616 78.08 209.708 82.688 210.572 87.116C210.752 88.124 211.148 89.312 211.688 90.356C216.584 87.872 221.768 85.784 221.768 80.96C221.768 77.324 218.816 76.316 215.864 77.036ZM230.045 93.704L231.161 94.676V95H226.193V94.676L227.345 93.704V70.88L226.193 70.124V69.8L229.721 68.324H230.045V93.704ZM249.998 92.048L250.358 92.336C248.486 94.28 246.362 95.504 242.978 95.504C236.606 95.504 232.97 90.752 232.97 86.072C232.97 81.392 236.606 76.388 242.978 76.388C244.958 76.388 246.326 76.712 248.162 77.036L249.134 80.276H248.846C247.226 78.116 244.418 76.316 241.106 77.036C236.858 77.9 234.95 82.724 235.814 87.116C236.57 91.004 239.486 95.36 244.562 94.712C246.902 94.424 248.486 93.596 249.998 92.048ZM260.3 76.388C266.672 76.388 269.84 81.392 269.84 86.072C269.84 90.752 266.672 95.504 260.3 95.504C253.928 95.504 250.724 90.752 250.724 86.072C250.724 81.392 253.928 76.388 260.3 76.388ZM262.172 94.856C266.492 93.956 267.932 89.096 266.996 84.668C266.096 80.168 262.748 76.1 258.428 77.036C254.18 77.936 252.704 82.724 253.568 87.152C254.468 91.688 257.816 95.828 262.172 94.856ZM299.127 93.704L300.279 94.676V95H295.311V94.676L296.463 93.704V82.724C296.463 79.448 295.527 77.036 292.611 77.036C289.803 77.036 287.499 79.34 287.139 82.472V93.704L288.291 94.676V95H283.323V94.676L284.475 93.704V82.724C284.475 79.448 283.539 77.036 280.623 77.036C277.887 77.036 275.655 79.16 275.115 82.076V93.704L276.267 94.676V95H271.299V94.676L272.451 93.704V78.944L271.299 78.188V77.864L274.791 76.388H275.115V79.124C277.059 77.396 279.111 76.388 281.595 76.388C283.575 76.388 285.627 77.432 286.563 79.664C288.399 77.648 290.883 76.388 293.583 76.388C296.319 76.388 299.127 78.26 299.127 82.94V93.704ZM319.115 92.048L319.475 92.336C317.603 94.244 315.479 95.504 312.095 95.504C305.723 95.504 302.087 90.752 302.087 86.036C302.087 81.356 305.723 76.388 312.095 76.388C315.371 76.388 318.863 78.116 318.863 81.356C318.863 85.604 311.123 88.484 306.335 90.824C306.479 91.076 306.587 91.292 306.767 91.472L307.055 91.868C308.711 93.92 310.799 95.072 313.679 94.712C316.019 94.388 317.603 93.56 319.115 92.048ZM310.223 77.036C305.975 78.08 304.067 82.688 304.931 87.116C305.111 88.124 305.507 89.312 306.047 90.356C310.943 87.872 316.127 85.784 316.127 80.96C316.127 77.324 313.175 76.316 310.223 77.036ZM337.24 90.644C337.24 92.732 337.852 94.82 340.516 94.82V95.252C337.96 95.36 334.54 94.748 334.54 90.212V76.82H332.524V76.388L336.916 73.364H337.24V76.388H340.228V76.82H337.24V90.644ZM350.089 76.388C356.461 76.388 359.629 81.392 359.629 86.072C359.629 90.752 356.461 95.504 350.089 95.504C343.717 95.504 340.513 90.752 340.513 86.072C340.513 81.392 343.717 76.388 350.089 76.388ZM351.961 94.856C356.281 93.956 357.721 89.096 356.785 84.668C355.885 80.168 352.537 76.1 348.217 77.036C343.969 77.936 342.493 82.724 343.357 87.152C344.257 91.688 347.605 95.828 351.961 94.856Z" fill="#D57456"/>
<path d="M276.492 24.8966C288.318 25.2733 297 26.52 297 28C297 29.48 288.318 30.7267 276.492 31.1034C284.588 39.732 289.845 46.7525 288.799 47.7991C287.753 48.8454 280.732 43.5881 272.103 35.4923C271.727 47.3183 270.48 56 269 56C267.52 56 266.273 47.3183 265.897 35.4923C257.268 43.5881 250.247 48.8454 249.201 47.7991C248.155 46.7525 253.412 39.732 261.508 31.1034C249.682 30.7267 241 29.48 241 28C241 26.52 249.682 25.2733 261.508 24.8966C253.412 16.268 248.155 9.24748 249.201 8.20093C250.247 7.15458 257.268 12.4119 265.897 20.5077C266.273 8.68173 267.52 0 269 0C270.48 0 271.727 8.68173 272.103 20.5077C280.732 12.4119 287.753 7.15458 288.799 8.20112C289.845 9.24748 284.588 16.268 276.492 24.8966Z" fill="#D57456"/>
</svg>
